<svg fill="none" version="1.1" viewBox="0 0 42 42" xmlns="http://www.w3.org/2000/svg">
 <g stroke="#fff" stroke-linecap="round" stroke-linejoin="round" stroke-width="3">
  <path d="m38.5 29.295v-21.123c0-2.1-1.715-3.6575-3.7975-3.4825h-0.105c-3.675 0.315-9.2575 2.1875-12.372 4.1475l-0.2975 0.1925c-0.5075 0.315-1.3475 0.315-1.855 0l-0.4375-0.2625c-3.115-1.9425-8.68-3.7975-12.355-4.095-2.0825-0.175-3.78 1.4-3.78 3.4825v21.14c0 1.68 1.365 3.255 3.045 3.465l0.5075 0.07c3.7975 0.5075 9.66 2.4325 13.02 4.27l0.07 0.035c0.4725 0.2625 1.225 0.2625 1.68 0 3.36-1.855 9.24-3.7975 13.055-4.305l0.5775-0.07c1.68-0.21 3.045-1.785 3.045-3.465z"/>
  <path d="m21 9.6074v26.25" opacity=".4"/>
  <path d="m13.562 14.857h-3.9375" opacity=".4"/>
  <path d="m14.875 20.107h-5.25" opacity=".4"/>
 </g>
</svg>
