<svg fill="none" version="1.1" viewBox="0 0 38 38" xmlns="http://www.w3.org/2000/svg">
 <g clip-rule="evenodd" fill="#fff" fill-rule="evenodd">
  <path d="m3.2831 3.2831c2.3877-2.3877 5.944-3.2831 10.467-3.2831h10.5c4.5229 0 8.0792 0.8954 10.467 3.2831 2.3877 2.3877 3.2831 5.944 3.2831 10.467v10.5c0 4.5229-0.8954 8.0792-3.2831 10.467s-5.944 3.2831-10.467 3.2831h-10.5c-4.5229 0-8.0792-0.8954-10.467-3.2831-2.3877-2.3877-3.2831-5.944-3.2831-10.467v-10.5c0-4.5229 0.8954-8.0792 3.2831-10.467zm2.1213 2.1213c-1.5498 1.5498-2.4044 4.1185-2.4044 8.3456v10.5c0 4.2271 0.8546 6.7958 2.4044 8.3456s4.1185 2.4044 8.3456 2.4044h10.5c4.2271 0 6.7958-0.8546 8.3456-2.4044s2.4044-4.1185 2.4044-8.3456v-10.5c0-4.2271-0.8546-6.7958-2.4044-8.3456s-4.1185-2.4044-8.3456-2.4044h-10.5c-4.2271 0-6.7958 0.8546-8.3456 2.4044z"/>
  <path d="m17.686 11.382c0.5829 0.5887 0.5782 1.5385-0.0105 2.1213-2.3492 2.3259-6.1474 2.3334-8.4861-0.0052-0.58579-0.5858-0.58579-1.5356 0-2.1214 0.58579-0.5857 1.5356-0.5857 2.1214 0 1.1613 1.1614 3.0681 1.1689 4.2539-0.0052 0.5887-0.5829 1.5385-0.5782 2.1213 0.0105z" opacity=".34"/>
  <path d="m28.816 11.382c0.5829 0.5887 0.5782 1.5385-0.0105 2.1213-2.3492 2.3259-6.1474 2.3334-8.4861-0.0052-0.5857-0.5858-0.5857-1.5356 0-2.1214 0.5858-0.5857 1.5356-0.5857 2.1214 0 1.1613 1.1614 3.0681 1.1689 4.2539-0.0052 0.5887-0.5829 1.5385-0.5782 2.1213 0.0105z" opacity=".34"/>
  <path d="m12.631 22.291c-0.0028 0.0065-0.0059 0.0169-0.0059 0.034 0 3.5291 2.8459 6.375 6.375 6.375s6.375-2.8459 6.375-6.375c0-0.0171-0.0031-0.0275-0.0059-0.034-0.0031-0.0075-0.0079-0.0147-0.0141-0.021-0.0063-0.0062-0.0135-0.011-0.021-0.0141-0.0065-0.0028-0.0169-0.0059-0.034-0.0059h-12.6c-0.0171 0-0.0275 0.0031-0.034 0.0059-0.0075 0.0031-0.0147 0.0079-0.021 0.0141-0.0062 0.0063-0.011 0.0135-0.0141 0.021zm-3.0059 0.034c0-1.7034 1.3716-3.075 3.075-3.075h12.6c1.7034 0 3.075 1.3716 3.075 3.075 0 5.1859-4.1891 9.375-9.375 9.375s-9.375-4.1891-9.375-9.375z" opacity=".34"/>
 </g>
</svg>
