<svg fill="none" version="1.1" viewBox="0 0 38 38" xmlns="http://www.w3.org/2000/svg">
 <g clip-rule="evenodd" fill="#fff" fill-rule="evenodd">
  <path d="m5.4044 5.4044c-1.5498 1.5498-2.4044 4.1185-2.4044 8.3456v10.5c0 4.2271 0.8546 6.7958 2.4044 8.3456s4.1185 2.4044 8.3456 2.4044h10.5c4.2271 0 6.7958-0.8546 8.3456-2.4044s2.4044-4.1185 2.4044-8.3456v-8.75c0-0.8284 0.6716-1.5 1.5-1.5s1.5 0.6716 1.5 1.5v8.75c0 4.5229-0.8954 8.0792-3.2831 10.467s-5.944 3.2831-10.467 3.2831h-10.5c-4.5229 0-8.0792-0.8954-10.467-3.2831-2.3877-2.3877-3.2831-5.944-3.2831-10.467v-10.5c0-4.5229 0.8954-8.0792 3.2831-10.467 2.3877-2.3877 5.944-3.2831 10.467-3.2831h8.75c0.8284 0 1.5 0.67157 1.5 1.5 0 0.82843-0.6716 1.5-1.5 1.5h-8.75c-4.2271 0-6.7958 0.8546-8.3456 2.4044z"/>
  <path d="m21.926 0.11422c0.5605-0.23217 1.2057-0.10384 1.6347 0.32516l14 14c0.429 0.429 0.5573 1.0742 0.3251 1.6347s-0.7791 0.9259-1.3858 0.9259h-7c-2.7081 0-4.9908-0.432-6.5294-1.9705-1.5386-1.5386-1.9706-3.8214-1.9706-6.5295v-7c0-0.60669 0.3655-1.1536 0.926-1.3858zm2.074 5.0071v3.3787c0 2.5419 0.443 3.7592 1.0919 4.4081s1.8662 1.0919 4.4081 1.0919h3.3787l-8.8787-8.8786z"/>
  <path d="m8.75 20.75c0-0.8284 0.67157-1.5 1.5-1.5h10.5c0.8284 0 1.5 0.6716 1.5 1.5s-0.6716 1.5-1.5 1.5h-10.5c-0.82843 0-1.5-0.6716-1.5-1.5z" opacity=".4"/>
  <path d="m8.75 27.75c0-0.8284 0.67157-1.5 1.5-1.5h7c0.8284 0 1.5 0.6716 1.5 1.5s-0.6716 1.5-1.5 1.5h-7c-0.82843 0-1.5-0.6716-1.5-1.5z" opacity=".4"/>
 </g>
</svg>
