<svg fill="none" version="1.1" viewBox="0 0 32 32" xmlns="http://www.w3.org/2000/svg">
 <path d="m11.61 11.057c-0.5207-0.5207-1.3649-0.5207-1.8856 0l-4 4-0.11092 0.1256c-0.4067 0.523-0.36973 1.2793 0.11092 1.76l4 4 0.12561 0.1109c0.52309 0.4067 1.2794 0.3697 1.76-0.1109l0.1109-0.1256c0.4067-0.5231 0.3698-1.2794-0.1109-1.76l-1.7232-1.7239h14.114l0.1555-9e-3c0.6632-0.077 1.1779-0.6405 1.1779-1.3243 0-0.7364-0.597-1.3334-1.3334-1.3334h-14.114l1.7232-1.7238 0.1109-0.1256c0.4067-0.5231 0.3698-1.2794-0.1109-1.76z" clip-rule="evenodd" fill="#00CC69" fill-rule="evenodd"/>
</svg>
