<svg fill="none" version="1.1" viewBox="0 0 32 32" xmlns="http://www.w3.org/2000/svg">
 <path d="m22.151 10.946c-0.5231-0.4067-1.2794-0.3698-1.7601 0.1109l-0.1109 0.1256c-0.4067 0.523-0.3697 1.2793 0.1109 1.76l1.7233 1.7238h-14.114l-0.15549 9e-3c-0.66312 0.077-1.1778 0.6406-1.1778 1.3244 0 0.7364 0.59695 1.3333 1.3333 1.3333h14.114l-1.7233 1.7239-0.1109 0.1256c-0.4067 0.523-0.3697 1.2793 0.1109 1.76 0.5207 0.5207 1.365 0.5207 1.8857 0l4-4 0.1109-0.1256c0.4067-0.5231 0.3697-1.2794-0.1109-1.76l-4-4-0.1256-0.1109z" clip-rule="evenodd" fill="#00CC69" fill-rule="evenodd"/>
</svg>
