<svg width="269" height="60" viewBox="0 0 269 60" fill="none" xmlns="http://www.w3.org/2000/svg">
<path d="M0 55.5H24.3589L0 30V55.5Z" fill="white"/>
<path d="M48.7176 55.5V30L24.3588 55.5H48.7176Z" fill="white"/>
<path d="M24.3588 4.5L48.7176 30V4.5H24.3588Z" fill="white"/>
<path d="M0 4.5V30L24.3589 4.5H0Z" fill="white"/>
<path d="M70.8392 16.62V20.8799H75.883L67.2856 42.7799H73.5903L75.4817 37.38H86.1997L88.1483 42.7799H94.625L84.3655 16.62H70.8392ZM77.2011 32.6399L80.8121 22.62L84.4801 32.6399H77.2011Z" fill="white"/>
<path d="M110.271 26.2194C109.411 24.7194 107.463 23.0994 104.425 23.0994C99.6678 23.0994 95.9424 26.6394 95.9424 32.8194C95.9424 38.8794 99.6678 42.4195 104.425 42.4195C107.291 42.4195 109.125 40.9794 110.042 39.5994V41.3395C110.042 44.8794 107.348 46.0794 104.597 46.0794C101.96 46.0794 99.7252 45.2994 97.6618 43.8595V48.5994C99.5532 49.7994 102.075 50.5195 105.513 50.5195C111.303 50.5195 115.716 47.4594 115.716 41.4594V23.5794H110.271V26.2194ZM105.972 37.9194C103.393 37.9194 101.674 35.8794 101.674 32.8194C101.617 29.6395 103.393 27.7194 105.972 27.7194C107.52 27.7194 108.953 28.2594 110.099 29.3994V36.2995C108.953 37.3195 107.52 37.9194 105.972 37.9194Z" fill="white"/>
<path d="M128.325 27.8392L127.466 23.5193H118.925V27.5393H122.708V42.7192H128.44V30.9592C129.242 29.5792 130.847 28.4992 133.77 28.4992C134.63 28.4992 135.489 28.6193 136.005 28.7992V23.4593C135.661 23.2792 135.031 23.1592 134.4 23.1592C130.79 23.1592 128.783 25.4392 128.325 27.8392Z" fill="white"/>
<path d="M148.102 23.0994C142.198 23.0994 137.785 27.1195 137.785 33.1795C137.785 39.2394 142.14 43.1994 148.102 43.1994C153.948 43.1994 158.36 39.2394 158.36 33.1795C158.36 27.1195 153.948 23.0994 148.102 23.0994ZM148.102 38.5194C145.351 38.5194 143.516 36.2995 143.516 33.1795C143.516 29.9994 145.351 27.7794 148.102 27.7794C150.795 27.7794 152.629 29.9994 152.629 33.1795C152.629 36.2995 150.795 38.5194 148.102 38.5194Z" fill="white"/>
<path d="M172.402 23.0986C169.708 23.0986 167.93 24.4187 166.956 25.7986V15.7787H161.225V42.7787H166.669V40.1987C167.586 41.6987 169.478 43.2587 172.402 43.2587C177.159 43.2587 180.884 39.5386 180.884 33.2386C180.884 26.8186 177.159 23.0986 172.402 23.0986ZM170.911 38.5186C169.421 38.5186 168.045 37.9786 166.956 36.8986V29.3987C168.045 28.3186 169.421 27.7786 170.911 27.7786C173.548 27.7786 175.209 29.8786 175.209 33.1787C175.152 36.4186 173.49 38.5186 170.911 38.5186Z" fill="white"/>
<path d="M201.691 37.9194V30.5994C201.691 25.9794 198.31 23.0994 192.808 23.0994C189.426 23.0994 186.961 23.8794 185.128 25.0195V29.6994C187.019 28.3194 189.369 27.4794 191.833 27.4794C194.355 27.4794 196.19 28.4994 196.19 31.0794V31.5594C195.158 31.2594 193.668 31.0194 192.12 31.0194C187.65 31.0194 183.58 32.8794 183.58 37.1394C183.58 40.6194 186.561 43.1394 190.515 43.1394C193.668 43.1394 195.33 41.9994 196.362 40.6194C196.934 42.3595 198.769 43.1394 200.545 43.1394C202.379 43.1394 203.296 42.7194 203.927 42.4194V38.9394C203.698 38.9994 203.296 39.0594 203.009 39.0594C202.322 39.1794 201.691 38.8195 201.691 37.9194ZM192.292 39.1794C190.457 39.1794 189.254 38.2795 189.254 36.9594C189.254 35.2195 191.146 34.6194 192.866 34.6194C194.127 34.6194 195.215 34.7994 196.132 35.0994V37.3794C195.158 38.5194 193.955 39.1794 192.292 39.1794Z" fill="white"/>
<path d="M219.743 23.0994C216.591 23.0994 214.47 24.7794 213.381 26.3394L212.808 23.5195H204.268V27.5395H208.051V42.7194H213.783V29.3994C214.585 28.4994 215.903 27.9594 217.336 27.9594C219.629 27.9594 220.947 29.1595 220.947 31.6795V42.7794H226.678V29.9994C226.735 25.4994 223.756 23.0994 219.743 23.0994Z" fill="white"/>
<path d="M251.209 42.7187V38.7587H248.573L244.217 32.1587L250.006 23.5786H244.275L239.632 30.5387H237.111V15.7787H231.379V42.7787H237.111V34.7986H239.689L244.733 42.7787H244.905H251.209H251.267L251.209 42.7187Z" fill="white"/>
</svg>
