<svg width="145" height="145" viewBox="0 0 145 145" fill="none" xmlns="http://www.w3.org/2000/svg">
<path d="M-0.00305176 145.07L145.064 0V145.07H-0.00305176Z" fill="#3F4BD4"/>
<mask id="mask0_508_733" style="mask-type:luminance" maskUnits="userSpaceOnUse" x="-1" y="0" width="147" height="146">
<path d="M145.064 145.07H-0.00305176V0.00291443H145.064V145.07Z" fill="white"/>
</mask>
<g mask="url(#mask0_508_733)">
<path d="M96.7095 48.3577C96.7095 61.7133 91.2964 73.7998 82.5467 82.5496C73.7969 91.3023 61.7075 96.7124 48.3547 96.7124L96.7095 48.3577Z" fill="#5CC973"/>
<path d="M145.064 145.07H130.901V130.907H145.064V145.07Z" fill="#5CC973"/>
<path d="M-0.00305176 145.07L48.3517 96.7153C48.3517 110.068 42.9386 122.157 34.1889 130.907C25.4391 139.657 13.3497 145.07 -0.00305176 145.07Z" fill="#5CC973"/>
<path d="M62.5146 145.07H34.189V130.907H62.5146V145.07Z" fill="#5CC973"/>
<path d="M96.7095 145.07C83.3567 145.07 71.2673 139.657 62.5175 130.907C53.7649 122.157 48.3547 110.068 48.3547 96.7153C61.7075 96.7153 73.7969 102.125 82.5467 110.878C91.2964 119.628 96.7095 131.717 96.7095 145.07Z" fill="#5CC973"/>
<path d="M96.7095 48.3577C110.062 48.3577 122.149 53.7707 130.898 62.5205C139.648 71.2702 145.061 83.3597 145.061 96.7124C131.709 96.7124 119.619 91.2994 110.869 82.5496C102.12 73.7998 96.7065 61.7104 96.7065 48.3577L145.061 0.00292206C145.061 13.3557 139.648 25.4451 130.898 34.1949C122.149 42.9446 110.059 48.3577 96.7095 48.3577Z" fill="#5CC973"/>
<path d="M130.901 34.1949H145.064V62.5205H130.901V48.3577V34.1949Z" fill="#5CC973"/>
<path d="M145.064 96.7153C145.064 110.068 139.651 122.157 130.901 130.907C122.151 139.657 110.062 145.07 96.7092 145.07C96.7092 131.717 102.119 119.628 110.872 110.878C119.622 102.128 131.711 96.7153 145.064 96.7153Z" fill="#5CC973"/>
<path d="M110.872 110.878H82.5466V82.5526H110.872V110.878Z" fill="#5CC973"/>
</g>
</svg>
