<svg width="145" height="145" viewBox="0 0 145 145" fill="none" xmlns="http://www.w3.org/2000/svg">
<path d="M-0.00305176 145.07L145.064 0V145.07H-0.00305176Z" fill="#5CC973"/>
<mask id="mask0_508_716" style="mask-type:luminance" maskUnits="userSpaceOnUse" x="-1" y="0" width="147" height="146">
<path d="M145.064 145.07H-0.00305176V0.00291443H145.064V145.07Z" fill="white"/>
</mask>
<g mask="url(#mask0_508_716)">
<path d="M96.7094 48.3577C96.7094 61.7133 91.2963 73.7998 82.5465 82.5496C73.7968 91.3023 61.7074 96.7124 48.3546 96.7124L96.7094 48.3577Z" fill="#3C4BDC"/>
<path d="M145.064 145.07H130.901V130.907H145.064V145.07Z" fill="#3C4BDC"/>
<path d="M-0.00305176 145.07L48.3517 96.7153C48.3517 110.068 42.9386 122.157 34.1889 130.907C25.4391 139.657 13.3497 145.07 -0.00305176 145.07Z" fill="#3C4BDC"/>
<path d="M62.5146 145.07H34.189V130.907H62.5146V145.07Z" fill="#3C4BDC"/>
<path d="M96.7094 145.07C83.3566 145.07 71.2672 139.657 62.5174 130.907C53.7647 122.157 48.3546 110.068 48.3546 96.7153C61.7074 96.7153 73.7968 102.125 82.5465 110.878C91.2963 119.628 96.7094 131.717 96.7094 145.07Z" fill="#3C4BDC"/>
<path d="M96.7093 48.3577C110.062 48.3577 122.149 53.7707 130.898 62.5205C139.648 71.2702 145.061 83.3597 145.061 96.7124C131.708 96.7124 119.619 91.2994 110.869 82.5496C102.119 73.7998 96.7064 61.7104 96.7064 48.3577L145.061 0.00292206C145.061 13.3557 139.648 25.4451 130.898 34.1949C122.149 42.9446 110.059 48.3577 96.7093 48.3577Z" fill="#3C4BDC"/>
<path d="M130.901 34.1949H145.064V62.5205H130.901V48.3577V34.1949Z" fill="#3C4BDC"/>
<path d="M145.064 96.7153C145.064 110.068 139.651 122.157 130.901 130.907C122.152 139.657 110.062 145.07 96.7094 145.07C96.7094 131.717 102.119 119.628 110.872 110.878C119.622 102.128 131.711 96.7153 145.064 96.7153Z" fill="#3C4BDC"/>
<path d="M110.872 110.878H82.5465V82.5526H110.872V110.878Z" fill="#3C4BDC"/>
</g>
</svg>
