<svg width="305" height="306" viewBox="0 0 305 306" fill="none" xmlns="http://www.w3.org/2000/svg">
<path d="M101.62 102.62C101.62 130.706 113.003 156.123 131.403 174.523C149.804 192.93 175.227 204.307 203.307 204.307L101.62 102.62Z" fill="white"/>
<path d="M-0.0671825 306H29.7163V276.217H-0.0671825V306Z" fill="white"/>
<path d="M305 306L203.313 204.313C203.313 232.393 214.696 257.816 233.096 276.217C251.497 294.617 276.92 306 305 306Z" fill="white"/>
<path d="M173.529 306H233.096V276.217H173.529V306Z" fill="white"/>
<path d="M101.62 306C129.7 306 155.123 294.617 173.523 276.217C191.93 257.816 203.307 232.393 203.307 204.313C175.227 204.313 149.804 215.69 131.403 234.097C113.003 252.497 101.62 277.92 101.62 306Z" fill="white"/>
<path d="M101.62 102.62C73.5399 102.62 48.1227 114.003 29.7225 132.403C11.3223 150.803 -0.0610046 176.227 -0.0610046 204.307C28.019 204.307 53.4423 192.923 71.8425 174.523C90.2427 156.123 101.626 130.7 101.626 102.62L-0.0610046 0.932648C-0.0610046 29.0126 11.3223 54.4359 29.7225 72.8362C48.1227 91.2364 73.546 102.62 101.62 102.62Z" fill="white"/>
<path d="M29.7163 72.8366H-0.0671825V132.404H29.7163V102.62V72.8366Z" fill="white"/>
<path d="M-0.0671387 204.313C-0.0671387 232.393 11.3161 257.816 29.7164 276.217C48.1166 294.617 73.5399 306 101.62 306C101.62 277.92 90.2427 252.497 71.8364 234.097C53.4362 215.696 28.0129 204.313 -0.0671387 204.313Z" fill="white"/>
<path d="M71.8363 234.096H131.403V174.529H71.8363V234.096Z" fill="white"/>
</svg>
