<svg width="180" height="39" viewBox="0 0 180 39" fill="none" xmlns="http://www.w3.org/2000/svg">
<g clip-path="url(#clip0_162_230)">
<path fill-rule="evenodd" clip-rule="evenodd" d="M13.8528 39C21.5032 39 27.7057 32.8393 27.7057 25.2405H13.8528V11.481C6.20248 11.481 0 17.6417 0 25.2405C0 32.8393 6.20248 39 13.8528 39Z" fill="#00CD69"/>
<path fill-rule="evenodd" clip-rule="evenodd" d="M39.3275 20.1915H18.999V0H29.1633V10.0957H39.3275V20.1915Z" fill="#3C4BDC"/>
<path d="M167.946 27.1012V20.8805C168.859 20.0666 169.928 19.7233 171.124 19.7233C173.263 19.7233 174.617 21.3799 174.617 23.9753C174.617 26.5706 173.263 28.2584 171.124 28.2584C169.928 28.2584 168.857 27.9151 167.946 27.1012ZM162.594 32.1023H167.692V29.8838C168.446 31.1347 170.085 32.5104 172.632 32.5104C176.756 32.5104 179.998 29.322 179.998 23.9753C179.998 18.6285 176.756 15.4713 172.632 15.4713C170.334 15.4713 168.792 16.5973 167.943 17.7209V9.37546H159.224V12.8135H162.591V32.1023H162.594ZM147.204 27.1324C147.204 25.7255 148.84 25.3197 150.194 25.3197C151.107 25.3197 152.019 25.4446 152.775 25.6631V27.4757C151.956 28.3521 150.982 28.8514 149.66 28.8514C148.18 28.8514 147.204 28.1648 147.204 27.1324ZM159.887 31.8213V28.5705C159.73 28.6642 159.447 28.7266 159.164 28.7266C158.567 28.7266 157.999 28.4769 157.999 27.7254V21.9105C157.999 17.9394 155.04 15.4713 149.942 15.4713C147.267 15.4713 144.75 16.158 143.271 17.0343V21.2238C144.907 19.973 147.015 19.4112 148.905 19.4112C151.173 19.4112 152.778 20.2251 152.778 21.9441V22.6308C151.833 22.3811 150.607 22.225 149.411 22.225C145.507 22.225 141.857 23.7256 141.857 27.4133C141.857 30.352 144.501 32.508 147.931 32.508C150.67 32.508 152.118 31.538 152.998 30.352C153.563 31.7901 155.2 32.508 157.027 32.508C158.506 32.508 159.609 32.0398 159.892 31.8213H159.887ZM138.705 9.37546H129.986V12.8135H133.353V32.1023H138.705V9.37546ZM117.083 23.9753C117.083 21.5047 118.657 19.7233 120.859 19.7233C123.061 19.7233 124.603 21.5047 124.603 23.9753C124.603 26.4458 123.03 28.2584 120.859 28.2584C118.688 28.2584 117.083 26.477 117.083 23.9753ZM120.859 15.4713C115.667 15.4713 111.7 18.847 111.7 23.9753C111.7 29.1035 115.667 32.5104 120.859 32.5104C126.051 32.5104 129.955 29.1348 129.955 23.9753C129.955 18.8157 125.957 15.4713 120.859 15.4713ZM98.7031 32.1023H104.052V21.6296C104.84 20.8805 106.129 20.3163 108.082 20.3163C108.87 20.3163 109.655 20.4411 110.127 20.566V15.9395C109.844 15.8146 109.276 15.721 108.742 15.721C106.129 15.721 104.492 17.0655 103.801 18.7221V15.8771H95.3964V19.3151H98.7006V32.0998L98.7031 32.1023ZM81.0456 23.6295C81.0456 21.1278 82.3992 19.5648 84.5384 19.5648C85.7977 19.5648 86.9 19.9706 87.8741 20.8469V26.4434C86.8976 27.3197 85.7977 27.7254 84.5384 27.7254C82.3992 27.7254 81.0456 26.1312 81.0456 23.6295ZM84.1613 38.6975C89.1649 38.6975 93.1943 36.0709 93.1943 31.0387V15.8771H88.0965V18.1267C87.3737 16.907 85.6721 15.4689 83.0615 15.4689C78.9064 15.4689 75.6649 18.5012 75.6649 23.6271C75.6649 28.753 78.9064 31.7541 83.0615 31.7541C85.4231 31.7541 87.0595 30.5657 87.8765 29.4397V30.9402C87.8765 33.8165 85.4835 34.7216 83.2186 34.7216C80.9537 34.7216 79.0321 34.0974 77.2385 32.8777V37.0985C78.9064 38.0685 81.1108 38.6927 84.1637 38.6927L84.1613 38.6975ZM60.021 23.5671L62.7596 15.9707L65.4669 23.5671H60.021ZM51.3336 32.1023H56.9995L58.6045 27.8191H66.9123L68.4859 32.1023H74.3089L65.7158 10.0957H54.7322V13.5338H58.5731L51.3336 32.1023Z" fill="black"/>
</g>
<defs>
<clipPath id="clip0_162_230">
<rect width="180" height="39" fill="white"/>
</clipPath>
</defs>
</svg>
