<svg width="235" height="33" viewBox="0 0 235 33" fill="none" xmlns="http://www.w3.org/2000/svg">
<g clip-path="url(#clip0_162_225)">
<path d="M0 33H20.6772C20.6772 28.4525 24.3721 24.7595 28.9313 24.7519H28.9466H33.0851V8.24809H20.6772C20.6772 3.70058 24.3721 0.00763006 28.9313 0H41.3621V33H20.6772C20.6772 28.4525 16.9824 24.7595 12.4232 24.7519H12.4079H8.26937V8.24809H20.6772C20.6772 3.70058 16.9901 0.00763006 12.4308 0H0V33Z" fill="#00CD69"/>
<path d="M220.167 19.2201V23.348C221.452 24.2559 224.367 24.9732 227.442 24.9732C231.711 24.9732 235 23.0046 235 19.6245C235 16.2444 232.116 15.1228 229.071 14.5276L227.473 14.2148C225.874 13.902 225.155 13.6502 225.155 12.994C225.155 12.2462 226.126 11.8647 227.756 11.8647C229.829 11.8647 232.085 12.4904 233.967 13.5815V9.51467C232.682 8.6067 230.425 7.91999 227.534 7.91999C223.02 7.91999 219.815 10.0793 219.815 13.1771C219.815 16.2749 222.447 17.717 225.935 18.3427L227.503 18.625C229.071 18.9073 229.668 19.1591 229.668 19.8153C229.668 20.6622 228.475 21.0361 226.723 21.0361C224.466 21.0361 221.674 20.0976 220.167 19.2201ZM200.943 24.5688H206.275V18.1214H208.44L212.326 24.5688H218.255L212.892 15.9316L217.849 8.33202H212.234L208.501 14.0546H206.275V1.83121H197.585V5.27236H200.943V24.5764V24.5688ZM184.726 16.4351C184.726 13.963 186.294 12.1776 188.49 12.1776C190.685 12.1776 192.223 13.963 192.223 16.4351C192.223 18.9073 190.654 20.7232 188.49 20.7232C186.325 20.7232 184.726 18.9378 184.726 16.4351ZM188.49 7.92762C183.311 7.92762 179.363 11.3077 179.363 16.4351C179.363 21.5625 183.318 24.9732 188.49 24.9732C193.661 24.9732 197.554 21.5931 197.554 16.4351C197.554 11.2772 193.569 7.92762 188.49 7.92762ZM164.278 16.4351C164.278 13.963 165.846 12.1776 168.042 12.1776C170.237 12.1776 171.775 13.963 171.775 16.4351C171.775 18.9073 170.207 20.7232 168.042 20.7232C165.877 20.7232 164.278 18.9378 164.278 16.4351ZM168.042 7.92762C162.863 7.92762 158.916 11.3077 158.916 16.4351C158.916 21.5625 162.871 24.9732 168.042 24.9732C173.213 24.9732 177.107 21.5931 177.107 16.4351C177.107 11.2772 173.121 7.92762 168.042 7.92762ZM144.519 19.5635V13.3373C145.429 12.5209 146.492 12.1776 147.686 12.1776C149.82 12.1776 151.166 13.8333 151.166 16.4351C151.166 19.037 149.82 20.7232 147.686 20.7232C146.492 20.7232 145.429 20.3799 144.519 19.5635ZM139.187 24.5688H144.266V22.3484C145.016 23.5998 146.653 24.9732 149.193 24.9732C153.301 24.9732 156.529 21.7838 156.529 16.4351C156.529 11.0865 153.301 7.92762 149.193 7.92762C146.906 7.92762 145.368 9.05687 144.519 10.1785V1.83121H135.829V5.27236H139.187V24.5764V24.5688ZM122.97 16.4351C122.97 13.963 124.538 12.1776 126.733 12.1776C128.929 12.1776 130.466 13.963 130.466 16.4351C130.466 18.9073 128.898 20.7232 126.733 20.7232C124.568 20.7232 122.97 18.9378 122.97 16.4351ZM126.733 7.92762C121.554 7.92762 117.607 11.3077 117.607 16.4351C117.607 21.5625 121.562 24.9732 126.733 24.9732C131.904 24.9732 135.798 21.5931 135.798 16.4351C135.798 11.2772 131.813 7.92762 126.733 7.92762ZM104.648 24.5688H109.98V14.0851C110.768 13.3373 112.053 12.7727 113.996 12.7727C114.784 12.7727 115.565 12.8948 116.031 13.0245V8.39306C115.748 8.27098 115.182 8.17178 114.654 8.17178C112.053 8.17178 110.416 9.51468 109.728 11.178V8.33202H101.351V11.7732H104.641V24.5688H104.648ZM86.5032 16.0918C86.5032 13.5891 87.8496 12.025 89.9839 12.025C91.2384 12.025 92.34 12.4294 93.3115 13.3068V18.9073C92.34 19.7847 91.2384 20.1891 89.9839 20.1891C87.8496 20.1891 86.5032 18.5944 86.5032 16.0918ZM89.609 31.1688C94.5967 31.1688 98.6128 28.544 98.6128 23.5006V8.33965H93.5333V10.5905C92.8143 9.3697 91.116 7.92762 88.5151 7.92762C84.3766 7.92762 81.1408 10.9644 81.1408 16.0918C81.1408 21.2192 84.369 24.2254 88.5151 24.2254C90.8712 24.2254 92.5006 23.0351 93.3115 21.9135V23.4166C93.3115 26.2932 90.9248 27.2011 88.6681 27.2011C86.4114 27.2011 84.499 26.5755 82.709 25.3547V29.5817C84.369 30.5507 86.5644 31.1764 89.609 31.1764V31.1688ZM65.6806 16.0307L68.4116 8.43121L71.112 16.0307H65.6883H65.6806ZM57.0211 24.5688H62.6666L64.2654 20.2807H72.5425L74.1107 24.5688H79.9168L71.3491 2.54843H60.4023V5.98959H64.2272L57.0135 24.5764L57.0211 24.5688Z" fill="black"/>
</g>
<defs>
<clipPath id="clip0_162_225">
<rect width="235" height="33" fill="white"/>
</clipPath>
</defs>
</svg>
