<svg width="299" height="34" viewBox="0 0 299 34" fill="none" xmlns="http://www.w3.org/2000/svg">
<g clip-path="url(#clip0_162_220)">
<path d="M289.222 18.8594C289.222 16.8415 290.312 15.5804 292.031 15.5804C293.043 15.5804 293.932 15.9102 294.717 16.6152V21.136C293.932 21.841 293.043 22.1708 292.031 22.1708C290.305 22.1708 289.222 20.8838 289.222 18.8659M291.726 31.0379C295.756 31.0379 298.994 28.9165 298.994 24.8549V12.5923H294.893V14.4097C294.309 13.4267 292.94 12.2625 290.837 12.2625C287.496 12.2625 284.887 14.7137 284.887 18.853C284.887 22.9922 287.496 25.4175 290.837 25.4175C292.738 25.4175 294.056 24.4603 294.711 23.5484V24.7578C294.711 27.0797 292.784 27.8105 290.96 27.8105C289.137 27.8105 287.593 27.3061 286.146 26.323V29.7314C287.489 30.514 289.26 31.0184 291.72 31.0184L291.726 31.0379ZM272.85 25.7086V16.641C273.409 16.0848 274.22 15.8326 275.083 15.8326C276.653 15.8326 277.516 16.6152 277.516 18.2062V25.7086H281.824V16.8997C281.824 13.9182 279.826 12.2819 276.984 12.2819C274.933 12.2819 273.486 13.3167 272.649 14.3774V12.6118H265.836V15.3863H268.548V25.715H272.857L272.85 25.7086ZM258.893 8.73768C258.893 9.99886 259.957 10.9367 261.301 10.9367C262.644 10.9367 263.734 10.0053 263.734 8.73768C263.734 7.47004 262.67 6.53871 261.301 6.53871C259.931 6.53871 258.893 7.49591 258.893 8.73768ZM263.578 12.5988H256.564V15.3734H259.276V25.7021H263.585V12.5923L263.578 12.5988ZM242.788 25.7021H254.52V22.3196H248.213L254.52 15.451V12.5988H242.788V15.9555H249.147L242.788 22.8499V25.7021ZM234.956 8.73121C234.956 9.99239 236.021 10.9302 237.364 10.9302C238.707 10.9302 239.797 9.99886 239.797 8.73121C239.797 7.46357 238.733 6.53224 237.364 6.53224C235.995 6.53224 234.956 7.48944 234.956 8.73121ZM239.641 12.5923H232.627V15.3669H235.339V25.6956H239.648V12.5923H239.641ZM218.605 25.6956H232.082V22.0091H223.114V7.92277H218.605V25.6956ZM198.126 21.3753V24.7061C199.165 25.4369 201.52 26.019 204.005 26.019C207.451 26.019 210.111 24.428 210.111 21.6987C210.111 18.9694 207.782 18.0639 205.322 17.5853L204.031 17.3331C202.74 17.0808 202.156 16.8803 202.156 16.35C202.156 15.7421 202.941 15.4381 204.258 15.4381C205.932 15.4381 207.756 15.9425 209.274 16.8286V13.5496C208.236 12.8187 206.413 12.2625 204.083 12.2625C200.436 12.2625 197.854 14.0023 197.854 16.5052C197.854 19.0082 199.982 20.1659 202.792 20.6703L204.057 20.8967C205.322 21.1231 205.803 21.3236 205.803 21.8539C205.803 22.533 204.842 22.837 203.421 22.837C201.598 22.837 199.34 22.0803 198.126 21.3753ZM185.551 25.6956V16.6281C186.109 16.0719 186.92 15.8197 187.783 15.8197C189.354 15.8197 190.217 16.6022 190.217 18.1933V25.6956H194.525V16.8868C194.525 13.9053 192.527 12.269 189.685 12.269C187.634 12.269 186.187 13.3038 185.35 14.3645V12.5988H178.537V15.3734H181.249V25.7021H185.558L185.551 25.6956ZM167.61 21.6793C167.61 20.541 168.927 20.2176 170.017 20.2176C170.751 20.2176 171.484 20.3211 172.094 20.4957V21.9574C171.432 22.6624 170.647 23.0698 169.589 23.0698C168.402 23.0698 167.61 22.5136 167.61 21.6793ZM177.817 25.4693V22.8434C177.687 22.9211 177.46 22.9728 177.233 22.9728C176.753 22.9728 176.298 22.7723 176.298 22.1643V17.4689C176.298 14.261 173.917 12.269 169.816 12.269C167.662 12.269 165.637 12.8252 164.444 13.5301V16.9127C165.761 15.9037 167.461 15.451 168.979 15.451C170.802 15.451 172.094 16.1107 172.094 17.4948V18.051C171.335 17.8505 170.348 17.7211 169.381 17.7211C166.241 17.7211 163.302 18.9306 163.302 21.9121C163.302 24.2857 165.43 26.0255 168.194 26.0255C170.4 26.0255 171.562 25.2429 172.275 24.2857C172.73 25.4499 174.047 26.0255 175.52 26.0255C176.707 26.0255 177.596 25.6439 177.823 25.4693H177.817ZM151.486 25.6956V16.6281C152.044 16.0719 152.855 15.8197 153.718 15.8197C155.288 15.8197 156.151 16.6022 156.151 18.1933V25.6956H160.459V16.8868C160.459 13.9053 158.461 12.269 155.619 12.269C153.568 12.269 152.121 13.3038 151.284 14.3645V12.5988H144.471V15.3734H147.184V25.7021H151.492L151.486 25.6956ZM137.71 8.72474C137.71 9.98592 138.774 10.9237 140.117 10.9237C141.46 10.9237 142.551 9.99239 142.551 8.72474C142.551 7.4571 141.486 6.52577 140.117 6.52577C138.748 6.52577 137.71 7.48297 137.71 8.72474ZM142.395 12.5859H135.381V15.3605H138.093V25.6892H142.401V12.5923L142.395 12.5859ZM124.648 25.6892V18.8724H132.98V15.3152H124.648V11.6287H133.564V7.9163H120.139V25.6892H124.648ZM101.347 19.1246C101.347 17.1326 102.613 15.6903 104.384 15.6903C106.155 15.6903 107.401 17.1326 107.401 19.1246C107.401 21.1166 106.136 22.5847 104.384 22.5847C102.632 22.5847 101.347 21.1425 101.347 19.1246ZM104.384 12.256C100.205 12.256 97.0128 14.9853 97.0128 19.1246C97.0128 23.2638 100.205 26.019 104.384 26.019C108.563 26.019 111.703 23.2897 111.703 19.1246C111.703 14.9595 108.485 12.256 104.384 12.256ZM85.8068 25.6892H90.1153V17.2296C90.7512 16.6216 91.7894 16.1689 93.3596 16.1689C93.9955 16.1689 94.6249 16.2724 95.0078 16.3694V12.6312C94.7807 12.5277 94.3265 12.4565 93.8917 12.4565C91.7894 12.4565 90.4722 13.5431 89.9141 14.8819V12.5859H83.1529V15.3605H85.8133V25.6892H85.8068ZM71.0839 18.8465C71.0839 16.8286 72.174 15.5674 73.8935 15.5674C74.9057 15.5674 75.7947 15.8973 76.5798 16.6022V21.1231C75.7947 21.828 74.9057 22.1579 73.8935 22.1579C72.174 22.1579 71.0839 20.8708 71.0839 18.853V18.8465ZM73.5885 31.0184C77.618 31.0184 80.8559 28.8971 80.8559 24.8355V12.5923H76.755V14.4097C76.171 13.4267 74.8019 12.2625 72.6996 12.2625C69.3579 12.2625 66.7494 14.7137 66.7494 18.853C66.7494 22.9922 69.3579 25.4175 72.6996 25.4175C74.6008 25.4175 75.918 24.4603 76.5733 23.5484V24.7578C76.5733 27.0797 74.6462 27.8105 72.8229 27.8105C70.9995 27.8105 69.4552 27.3061 68.0082 26.323V29.7314C69.3514 30.514 71.1228 31.0184 73.582 31.0184H73.5885ZM53.8044 18.7947L56.0106 12.657L58.1908 18.7947H53.8109H53.8044ZM46.8096 25.6892H51.3712L52.6624 22.229H59.3523L60.6176 25.6892H65.3024L58.3855 7.9163H49.5413V10.6909H52.63L46.8031 25.6892H46.8096Z" fill="black"/>
<path fill-rule="evenodd" clip-rule="evenodd" d="M28.4206 19.8296H11.3682V14.164H28.4206V19.8296ZM28.4206 11.3312H17.0523V5.66559H28.4206V11.3312ZM28.4206 28.3279H5.68411V22.6624H28.4206V28.3279ZM0 0H34.1112V34H0V0Z" fill="#E70024"/>
</g>
<defs>
<clipPath id="clip0_162_220">
<rect width="299" height="34" fill="white"/>
</clipPath>
</defs>
</svg>
