<svg width="242" height="44" viewBox="0 0 242 44" fill="none" xmlns="http://www.w3.org/2000/svg">
<g clip-path="url(#clip0_162_201)">
<path d="M68.17 14.3592H64.3753V10.9574H75.2284L83.7185 32.7218H77.9643L76.4081 28.4879H68.1969L66.6105 32.7218H61.0142L68.1667 14.3559L68.17 14.3592ZM74.9796 24.284L72.3042 16.7719L69.5985 24.284H74.9796Z" fill="black"/>
<path d="M86.6091 37.6708V33.4971C88.3905 34.7134 90.3601 35.3216 92.518 35.3216C93.8019 35.3216 94.8909 35.0276 95.7816 34.4394C96.6723 33.8513 97.1193 32.8989 97.1193 31.5789V30.0952C96.6622 30.7335 96.027 31.2749 95.2068 31.7193C94.3867 32.1637 93.4389 32.3843 92.36 32.3843C90.992 32.3843 89.7518 32.0635 88.6426 31.4252C87.5334 30.787 86.6562 29.858 86.0142 28.6416C85.3722 27.4252 85.0496 25.995 85.0496 24.3442C85.0496 22.6934 85.3722 21.2632 86.0142 20.0468C86.6562 18.8304 87.5334 17.8981 88.6426 17.2498C89.7518 16.6015 90.992 16.2774 92.36 16.2774C93.5431 16.2774 94.5615 16.5414 95.4219 17.066C96.2824 17.5906 96.921 18.2055 97.3344 18.9039V16.6784H102.373V31.6725C102.373 33.2799 101.979 34.6566 101.19 35.7995C100.403 36.9424 99.3343 37.8045 97.9865 38.3826C96.6387 38.9607 95.1262 39.2481 93.4456 39.2481C90.6895 39.2481 88.4073 38.7235 86.6058 37.6708H86.6091ZM91.3046 27.2982C91.9264 28.0301 92.7667 28.3943 93.8221 28.3943C95.0858 28.3943 96.1849 27.9733 97.1193 27.1278V21.594C96.1849 20.7485 95.0858 20.3275 93.8221 20.3275C92.7633 20.3275 91.9264 20.6884 91.3046 21.4102C90.6828 22.132 90.3702 23.1111 90.3702 24.3475C90.3702 25.584 90.6828 26.5698 91.3046 27.3016V27.2982Z" fill="black"/>
<path d="M107.818 20.0802H104.554V16.6784H112.856V19.4921C113.229 18.6065 113.831 17.8914 114.661 17.3434C115.491 16.7987 116.516 16.5246 117.74 16.5246C118.321 16.5246 118.775 16.5982 119.108 16.7419V21.3166C118.486 21.1529 117.81 21.0693 117.088 21.0693C115.347 21.0693 114.019 21.5004 113.108 22.3693V32.7251H107.821V20.0802H107.818Z" fill="black"/>
<path d="M134.28 17.3267C135.648 18.0284 136.727 19.0176 137.513 20.2941C138.3 21.5739 138.696 23.0343 138.696 24.6851C138.696 26.3358 138.303 27.8296 137.513 29.1061C136.727 30.386 135.648 31.3751 134.28 32.0735C132.912 32.7753 131.386 33.1262 129.709 33.1262C128.031 33.1262 126.469 32.7753 125.09 32.0735C123.712 31.3718 122.627 30.3826 121.84 29.1061C121.05 27.8296 120.657 26.3559 120.657 24.6851C120.657 23.0142 121.05 21.5739 121.84 20.2941C122.627 19.0176 123.709 18.0284 125.09 17.3267C126.469 16.6249 128.008 16.274 129.709 16.274C131.409 16.274 132.912 16.6249 134.28 17.3267ZM127.02 27.7293C127.712 28.5247 128.61 28.919 129.709 28.919C130.808 28.919 131.672 28.5213 132.367 27.7293C133.063 26.9374 133.409 25.9215 133.409 24.6851C133.409 23.4486 133.063 22.4628 132.367 21.6708C131.672 20.8789 130.788 20.4812 129.709 20.4812C128.63 20.4812 127.739 20.8789 127.033 21.6708C126.327 22.4628 125.978 23.4687 125.978 24.6851C125.978 25.9014 126.324 26.9374 127.02 27.7293Z" fill="black"/>
<path d="M152.598 15.472H141.402V10.9574H159.468V14.914L148.272 28.2072H159.468V32.7218H141.402V28.7318L152.598 15.4687V15.472Z" fill="black"/>
<path d="M178.888 32.8922C178.361 33.0459 177.773 33.1228 177.131 33.1228C176.196 33.1228 175.369 32.9357 174.643 32.5647C173.917 32.1938 173.42 31.6692 173.151 30.9875C172.092 32.411 170.425 33.1195 168.143 33.1195C167.024 33.1195 166.009 32.9023 165.094 32.4712C164.184 32.0401 163.461 31.4353 162.933 30.6633C162.406 29.8914 162.14 29.0292 162.14 28.0802C162.14 26.3693 162.856 25.086 164.284 24.2306C165.716 23.3751 167.488 22.9474 169.602 22.9474C170.805 22.9474 171.914 23.081 172.929 23.3484V22.6667C172.929 21.8413 172.583 21.2197 171.887 20.7953C171.191 20.3743 170.264 20.1604 169.104 20.1604C168.13 20.1604 167.155 20.3108 166.18 20.6082C165.205 20.9089 164.325 21.3567 163.538 21.9515V17.8079C164.305 17.3534 165.279 16.9825 166.462 16.6951C167.646 16.4077 168.866 16.2607 170.133 16.2607C172.64 16.2607 174.596 16.8287 175.995 17.9616C177.393 19.0944 178.095 20.6516 178.095 22.6299V28.381C178.095 28.7318 178.203 28.9825 178.421 29.1395C178.64 29.2932 178.912 29.3701 179.245 29.3701C179.557 29.3701 179.793 29.32 179.961 29.2164V32.4311C179.776 32.5748 179.416 32.7251 178.888 32.8789V32.8922ZM168.099 29.0426C168.546 29.35 169.131 29.5071 169.857 29.5071C171.06 29.5071 172.086 29.0526 172.936 28.147V26.3525C172.149 26.1253 171.299 26.0117 170.385 26.0117C169.575 26.0117 168.882 26.152 168.301 26.4294C167.719 26.7068 167.43 27.1679 167.43 27.8062C167.43 28.3208 167.652 28.7352 168.099 29.0426Z" fill="black"/>
<path d="M183.601 32.7252V20.0802H180.273V16.6784H188.639V18.8438C189.2 18.1019 189.913 17.4871 190.783 17.0059C191.654 16.5213 192.649 16.2807 193.768 16.2807C194.887 16.2807 195.889 16.5113 196.706 16.9758C197.526 17.4403 198.151 18.0518 198.588 18.817C199.106 18.1153 199.805 17.5171 200.689 17.0226C201.569 16.528 202.641 16.2807 203.909 16.2807C205.69 16.2807 207.132 16.7753 208.231 17.7644C209.33 18.7536 209.878 20.1236 209.878 21.878V32.7285H204.591V23.2381C204.591 22.4127 204.359 21.7744 203.892 21.32C203.425 20.8655 202.786 20.6383 201.979 20.6383C200.88 20.6383 200.01 20.9591 199.368 21.5973V32.7285H194.081V23.2381C194.081 22.4127 193.852 21.7744 193.395 21.32C192.938 20.8655 192.306 20.6383 191.499 20.6383C190.42 20.6383 189.55 20.949 188.888 21.5673V32.7285H183.601V32.7252Z" fill="black"/>
<path d="M220.2 32.7251H214.913V20.0802H211.585V16.6784H220.2V32.7251ZM219.531 10.0317C220.102 10.5464 220.385 11.188 220.385 11.9499C220.385 12.7118 220.099 13.3534 219.531 13.868C218.96 14.3826 218.25 14.6399 217.4 14.6399C216.55 14.6399 215.871 14.3826 215.299 13.868C214.728 13.3534 214.446 12.7151 214.446 11.9499C214.446 11.1846 214.731 10.5497 215.299 10.0317C215.871 9.51713 216.57 9.25982 217.4 9.25982C218.23 9.25982 218.96 9.51713 219.531 10.0317Z" fill="black"/>
<path d="M225.705 32.7251V20.0802H222.378V16.6784H230.744V18.8438C231.325 18.1019 232.065 17.487 232.969 17.0058C233.869 16.5213 234.901 16.2807 236.064 16.2807C237.846 16.2807 239.284 16.7753 240.37 17.7644C241.459 18.7535 242.003 20.1437 242.003 21.9382V32.7285H236.716V23.5455C236.716 22.5764 236.461 21.8513 235.953 21.3667C235.446 20.8822 234.703 20.6416 233.728 20.6416C232.565 20.6416 231.654 20.9724 230.992 21.6307V32.7285H225.705V32.7251Z" fill="black"/>
<path fill-rule="evenodd" clip-rule="evenodd" d="M22.0354 10.954H22.2203C22.2203 16.9791 27.1779 21.9081 33.238 21.9081V22.0919C27.1779 22.0919 22.2203 27.0209 22.2203 33.0459H22.0354C22.0354 27.0209 17.0778 22.0919 11.0177 22.0919V21.9081C17.0778 21.9081 22.0354 16.9791 22.0354 10.954Z" fill="#00CD69"/>
<path fill-rule="evenodd" clip-rule="evenodd" d="M33.238 0C39.3216 0 44.2557 4.9056 44.2557 10.9541C44.2557 17.0025 39.3216 21.9081 33.238 21.9081V10.9541H22.2203C22.2203 4.9056 27.151 0 33.238 0Z" fill="#00CD69"/>
<path fill-rule="evenodd" clip-rule="evenodd" d="M11.0177 0C17.1013 0 22.0354 4.9056 22.0354 10.9541H11.0177V21.9081C4.93411 21.9081 0 17.0025 0 10.9541C0 4.9056 4.93411 0 11.0177 0Z" fill="#00CD69"/>
<path fill-rule="evenodd" clip-rule="evenodd" d="M33.238 22.0919C39.3216 22.0919 44.2557 26.9975 44.2557 33.0459C44.2557 39.0944 39.3216 44 33.238 44C27.1544 44 22.2203 39.0977 22.2203 33.0459H33.238V22.0919Z" fill="#00CD69"/>
<path fill-rule="evenodd" clip-rule="evenodd" d="M22.0354 33.0459C22.0354 39.0944 17.1013 44 11.0177 44C4.93411 44 0 39.0944 0 33.0459C0 26.9975 4.93075 22.0919 11.0177 22.0919V33.0459H22.0354Z" fill="#00CD69"/>
</g>
<defs>
<clipPath id="clip0_162_201">
<rect width="242" height="44" fill="white"/>
</clipPath>
</defs>
</svg>
