<svg width="196" height="44" viewBox="0 0 196 44" fill="none" xmlns="http://www.w3.org/2000/svg">
<g clip-path="url(#clip0_162_187)">
<path fill-rule="evenodd" clip-rule="evenodd" d="M0 43.8071H56.9778V15.7718L28.4874 43.8071L0 15.7718V43.8071Z" fill="#00CD69"/>
<path fill-rule="evenodd" clip-rule="evenodd" d="M28.4874 31.5405C37.338 31.5405 44.5134 24.4789 44.5134 15.7688C44.5134 7.05857 37.338 0 28.4874 0C19.6367 0 12.4644 7.06158 12.4644 15.7718C12.4644 24.482 19.6398 31.5435 28.4904 31.5435" fill="#FFAA46"/>
<path d="M78.645 0.798685H91.6025V4.96692H83.3919V8.02302H90.8583V12.1912H83.3919V18.4783H78.645V0.798685Z" fill="black"/>
<path d="M164.331 0.0421944H168.695V18.4782H164.331V0.0421944ZM157.786 7.9989C158.84 6.51003 160.429 5.87711 162.61 6.10617V10.2744C161.737 10.0966 160.891 10.1237 160.095 10.3497C159.274 10.6029 158.683 11.0068 158.298 11.5885V18.4843H153.933V6.35632H157.783V7.9989H157.786ZM147.753 11.1303C147.83 10.7265 147.729 10.2714 147.444 9.79218C147.135 9.31297 146.596 9.08391 145.827 9.08391C145.211 9.08391 144.697 9.26173 144.262 9.63847C143.827 10.0182 143.622 10.4974 143.622 11.1273H147.753V11.1303ZM139.258 12.4173C139.258 11.281 139.463 10.2955 139.874 9.41242C140.284 8.55346 140.823 7.87232 141.491 7.39311C142.158 6.9139 142.85 6.55826 143.57 6.33221C144.29 6.10617 145.006 5.97959 145.726 5.97959C146.752 5.97959 147.677 6.13028 148.473 6.43469C149.269 6.73909 149.909 7.14295 150.396 7.64628C150.859 8.15261 151.245 8.73128 151.526 9.38831C151.808 10.0695 151.961 10.7536 151.961 11.486C151.937 12.2184 151.857 12.9749 151.732 13.7072H143.674C144.137 14.946 145.444 15.5759 147.6 15.5759C148.908 15.5759 150.09 15.3739 151.14 14.9942V18.1769C149.833 18.632 148.317 18.858 146.571 18.858C144.467 18.858 142.722 18.2763 141.337 17.1401C139.95 16.0038 139.258 14.4366 139.258 12.4173ZM121.985 18.4782H117.621V6.35632H121.471V7.64326C121.857 7.21529 122.368 6.80841 123.063 6.48291C123.731 6.15439 124.475 5.97657 125.272 5.97657C126.913 5.97657 128.12 6.53113 128.916 7.64326C130.123 6.53113 131.43 5.97657 132.842 5.97657C133.715 5.97657 134.459 6.12727 135.099 6.43167C135.739 6.76019 136.202 7.16405 136.511 7.67039C136.82 8.20083 137.05 8.70717 137.179 9.18638C137.307 9.69272 137.384 10.196 137.384 10.7024V18.4813H133.02V11.0821C133.02 10.627 132.891 10.2744 132.634 10.0212C132.352 9.76806 132.018 9.64148 131.608 9.64148C130.94 9.64148 130.349 9.89465 129.81 10.4251V18.4813H125.446V11.0821C125.446 10.627 125.317 10.2744 125.06 10.0212C124.778 9.76806 124.445 9.64148 124.034 9.64148C123.238 9.64148 122.546 9.99411 121.982 10.7024V18.4813L121.985 18.4782ZM111.104 7.99589C112.158 6.50702 113.747 5.8741 115.928 6.10316V10.2714C115.055 10.0936 114.21 10.1207 113.414 10.3467C112.593 10.5999 112.002 11.0038 111.616 11.5854V18.4813H107.252V6.35632H111.101V7.9989L111.104 7.99589ZM101.072 11.1273C101.148 10.7235 101.047 10.2684 100.762 9.78916C100.453 9.30995 99.914 9.08089 99.1454 9.08089C98.5298 9.08089 98.0153 9.25871 97.5804 9.63545C97.1455 10.0152 96.9404 10.4944 96.9404 11.1243H101.072V11.1273ZM92.5763 12.4143C92.5763 11.278 92.7815 10.2925 93.1919 9.40941C93.6022 8.55045 94.1412 7.8693 94.8088 7.39009C95.4765 6.91088 96.1686 6.55524 96.8883 6.3292C97.608 6.10316 98.3246 5.97657 99.0443 5.97657C100.07 5.97657 100.995 6.12727 101.791 6.43167C102.588 6.73608 103.228 7.13994 103.715 7.64326C104.177 8.1496 104.563 8.72827 104.845 9.3853C105.126 10.0664 105.28 10.7506 105.28 11.483C105.255 12.2154 105.175 12.9718 105.05 13.7042H96.9924C97.4549 14.9429 98.7625 15.5728 100.919 15.5728C102.226 15.5728 103.408 15.3709 104.459 14.9912V18.1738C103.151 18.6289 101.635 18.855 99.8895 18.855C97.7856 18.855 96.04 18.2733 94.6557 17.1371C93.2684 16.0008 92.5763 14.4336 92.5763 12.4143Z" fill="black"/>
<path d="M175.907 10.3708C175.444 10.9525 175.215 11.6337 175.215 12.4173C175.215 13.2009 175.444 13.882 175.907 14.4637C176.342 15.0454 177.009 15.3227 177.858 15.3227C178.421 15.3227 178.936 15.172 179.371 14.8676C179.805 14.5903 180.139 14.2377 180.344 13.8067V11.0279C180.139 10.5999 179.805 10.2443 179.371 9.94287C178.936 9.66559 178.421 9.5149 177.858 9.5149C177.009 9.5149 176.345 9.79218 175.907 10.3739M180.859 16.8387C180.525 17.4204 179.986 17.8996 179.294 18.2793C178.574 18.6591 177.702 18.861 176.676 18.861C175.65 18.861 174.801 18.6832 174.008 18.3065C173.212 17.9267 172.596 17.4475 172.134 16.8176C171.671 16.1877 171.313 15.5035 171.08 14.747C170.851 14.0147 170.722 13.231 170.722 12.4233C170.722 11.6156 170.851 10.832 171.08 10.0755C171.31 9.3431 171.671 8.66196 172.134 8.02904C172.596 7.39612 173.212 6.91691 174.008 6.54017C174.804 6.16042 175.677 5.98561 176.676 5.98561C177.674 5.98561 178.574 6.18755 179.294 6.5673C179.986 6.94705 180.525 7.42626 180.859 8.00794V6.36537H184.709V18.4782H180.859V16.8357V16.8387Z" fill="black"/>
<path d="M191.177 7.9989C192.23 6.51004 193.82 5.87711 196 6.10617V10.2744C195.127 10.0966 194.282 10.1237 193.486 10.3497C192.665 10.6029 192.074 11.0068 191.688 11.5885V18.4843H187.324V6.35633H191.174V7.9989H191.177Z" fill="black"/>
<path d="M95.5408 26.016H97.3906V43.6956H95.2346V30.0336L88.7911 39.5274H87.4589L81.0154 30.0336V43.6956H78.8594V26.016H80.7091L88.1234 36.9264L95.5408 26.016Z" fill="black"/>
<path d="M103.831 34.3766C102.983 35.2115 102.572 36.2965 102.572 37.6346C102.572 38.9728 102.983 40.0578 103.831 40.8927C104.652 41.7275 105.678 42.1314 106.912 42.1314C107.965 42.1314 108.887 41.8541 109.683 41.2724C110.48 40.6907 111.068 39.9855 111.454 39.1506V36.1186C111.068 35.2838 110.48 34.5785 109.683 33.9968C108.887 33.4152 107.965 33.1379 106.912 33.1379C105.681 33.1379 104.655 33.5417 103.831 34.3766ZM111.659 41.6763C110.275 43.2164 108.605 44 106.679 44C104.909 44 103.445 43.3942 102.291 42.1826C101.112 40.971 100.52 39.455 100.52 37.6376C100.52 35.8203 101.112 34.3043 102.291 33.0927C103.445 31.8811 104.909 31.2753 106.679 31.2753C108.605 31.2753 110.271 32.0589 111.659 33.599V31.5797H113.505V43.7016H111.659V41.6823V41.6763Z" fill="black"/>
<path d="M131.495 27.8093L133.522 27.303V31.5707H138.45V33.4393H133.522V39.7022C133.522 40.5852 133.727 41.2182 134.165 41.5708C134.575 41.9234 135.243 42.1012 136.168 42.1012C137.093 42.1012 137.966 41.9234 138.887 41.5467V43.4153C137.834 43.795 136.731 43.9699 135.577 43.9699C134.318 43.9699 133.344 43.6413 132.6 42.9602C131.856 42.3032 131.498 41.3447 131.498 40.0548V33.4393H129.189V31.5707H131.498V27.8063L131.495 27.8093ZM128.699 43.6956H126.285L121.768 38.4936H119.355V43.6956H117.303V26.016H119.355V36.622H121.845L125.746 31.5707H128.132L123.462 37.6075L128.695 43.6956H128.699Z" fill="black"/>
<path d="M143.659 34.3766C142.811 35.2115 142.4 36.2965 142.4 37.6346C142.4 38.9728 142.811 40.0578 143.659 40.8927C144.48 41.7275 145.506 42.1314 146.74 42.1314C147.793 42.1314 148.715 41.8541 149.511 41.2724C150.308 40.6907 150.896 39.9855 151.281 39.1506V36.1186C150.896 35.2838 150.308 34.5785 149.511 33.9968C148.715 33.4152 147.793 33.1379 146.74 33.1379C145.509 33.1379 144.483 33.5417 143.659 34.3766ZM151.487 41.6763C150.099 43.2164 148.433 44 146.507 44C144.737 44 143.273 43.3942 142.118 42.1826C140.939 40.971 140.348 39.455 140.348 37.6376C140.348 35.8203 140.939 34.3043 142.118 33.0927C143.273 31.8811 144.737 31.2753 146.507 31.2753C148.433 31.2753 150.099 32.0589 151.487 33.599V31.5797H153.333V43.7016H151.487V41.6823V41.6763Z" fill="black"/>
<path d="M175.095 26.7484C175.353 26.9744 175.481 27.303 175.481 27.7068C175.481 28.1107 175.353 28.4151 175.095 28.6411C174.838 28.8672 174.532 28.9938 174.146 28.9938C173.76 28.9938 173.454 28.8672 173.197 28.6411C172.939 28.4151 172.811 28.1107 172.811 27.7068C172.811 27.303 172.939 26.9744 173.197 26.7484C173.454 26.5224 173.76 26.4199 174.146 26.4199C174.532 26.4199 174.838 26.5224 175.095 26.7484ZM175.172 43.6956H173.12V31.5737H175.172V43.6956ZM166.833 40.8927C167.653 40.0578 168.064 38.9728 168.064 37.6346C168.064 36.2965 167.653 35.2115 166.833 34.3766C165.984 33.5417 164.958 33.1379 163.727 33.1379C162.674 33.1379 161.752 33.4152 160.956 33.9968C160.16 34.5785 159.572 35.2838 159.186 36.1186V39.1506C159.572 39.9855 160.16 40.6907 160.956 41.2724C161.752 41.8541 162.674 42.1314 163.727 42.1314C164.958 42.1314 165.984 41.7275 166.833 40.8927ZM157.131 26.016H159.183V33.3911C160.414 31.9775 162.006 31.2693 163.957 31.2693C165.727 31.2693 167.191 31.8751 168.37 33.0866C169.525 34.2982 170.116 35.8142 170.116 37.6316C170.116 39.449 169.525 40.965 168.37 42.1766C167.191 43.3882 165.727 43.994 163.957 43.994C162.034 43.994 160.365 43.2104 158.977 41.6702V43.6896H157.131V26.01V26.016Z" fill="black"/>
</g>
<defs>
<clipPath id="clip0_162_187">
<rect width="196" height="44" fill="white"/>
</clipPath>
</defs>
</svg>
