<svg width="269" height="44" viewBox="0 0 269 44" fill="none" xmlns="http://www.w3.org/2000/svg">
<g clip-path="url(#clip0_162_176)">
<path d="M57.439 32.1383H71.6962V28.1686H62.209V13.0027H57.439V32.1383Z" fill="black"/>
<path d="M94.3448 27.8179C94.3448 26.5937 95.7395 26.2431 96.8939 26.2431C97.6733 26.2431 98.4468 26.3501 99.0914 26.5403V28.1151C98.394 28.8758 97.5619 29.3096 96.4368 29.3096C95.1769 29.3096 94.3448 28.7094 94.3448 27.812M105.145 31.8887V29.06C105.01 29.1432 104.77 29.1967 104.529 29.1967C104.02 29.1967 103.539 28.9768 103.539 28.329V23.2718C103.539 19.819 101.019 17.6737 96.6771 17.6737C94.3976 17.6737 92.2528 18.2739 90.9929 19.0346V22.6775C92.3876 21.59 94.1807 21.1027 95.7922 21.1027C97.7201 21.1027 99.0914 21.8098 99.0914 23.3074V23.9076C98.2886 23.6877 97.2396 23.557 96.2259 23.557C92.9033 23.557 89.7917 24.8644 89.7917 28.0675C89.7917 30.6229 92.0419 32.5008 94.966 32.5008C97.2982 32.5008 98.5288 31.6569 99.2789 30.6229C99.7594 31.8709 101.154 32.5008 102.707 32.5008C103.967 32.5008 104.904 32.0908 105.145 31.9006V31.8887ZM77.937 23.4619C78.0191 21.9644 79.1149 20.9363 80.6443 20.9363C82.1737 20.9363 83.1641 21.9703 83.2168 23.4619H77.937ZM73.3018 24.9001C73.3018 29.7374 77.0815 32.483 82.0917 32.483C84.6115 32.483 86.4339 31.9363 87.559 31.1221V27.6694C86.2698 28.43 84.6935 28.9471 82.4667 28.9471C80.24 28.9471 77.937 27.7229 77.937 26.2015H87.6118V24.383C87.6118 20.2766 84.5822 17.6678 80.615 17.6678C76.6478 17.6678 73.296 20.55 73.296 24.9001H73.3018Z" fill="black"/>
<path d="M179.156 13.8703C179.156 15.2312 180.281 16.2356 181.705 16.2356C183.129 16.2356 184.277 15.2312 184.277 13.8703C184.277 12.5095 183.152 11.5051 181.705 11.5051C180.257 11.5051 179.156 12.5392 179.156 13.8703ZM184.113 18.0303H176.689V21.0195H179.554V32.1383H184.113V18.0303ZM166.182 32.1383V24.799H175.001V20.966H166.182V16.9962H175.616V13.0027H161.412V32.1383H166.182ZM142.648 32.1383H147.207V23.034C147.875 22.3803 148.977 21.893 150.641 21.893C151.309 21.893 151.983 22 152.382 22.1129V18.0897C152.141 17.9827 151.655 17.8995 151.204 17.8995C148.977 17.8995 147.582 19.0702 146.996 20.5084V18.0362H139.841V21.0254H142.654V32.1442L142.648 32.1383ZM129.059 23.4679C129.141 21.9703 130.237 20.9422 131.766 20.9422C133.296 20.9422 134.286 21.9762 134.339 23.4679H129.059ZM124.424 24.906C124.424 29.7434 128.204 32.4889 133.214 32.4889C135.734 32.4889 137.556 31.9422 138.681 31.128V27.6753C137.392 28.436 135.816 28.953 133.589 28.953C131.362 28.953 129.059 27.7288 129.059 26.2075H138.734V24.389C138.734 20.2826 135.704 17.6737 131.737 17.6737C127.77 17.6737 124.418 20.5559 124.418 24.906H124.424ZM111.262 25.0962C111.262 22.8142 112.417 21.3701 114.239 21.3701C115.341 21.3701 116.331 21.7207 117.163 22.5943V27.5981C116.331 28.4419 115.341 28.7925 114.239 28.7925C112.417 28.7925 111.262 27.3544 111.262 25.0962ZM112.95 17.6737C109.44 17.6737 106.68 20.4489 106.68 25.0962C106.68 29.7434 109.44 32.4889 112.95 32.4889C115.417 32.4889 116.865 30.9379 117.374 29.7969V32.1324H121.717V12.3787H117.158V19.9616C116.513 18.8741 115.118 17.6796 112.95 17.6796V17.6737Z" fill="black"/>
<path d="M210.002 27.8179C210.002 26.5937 211.397 26.2431 212.551 26.2431C213.331 26.2431 214.104 26.3501 214.749 26.5402V28.1151C214.051 28.8757 213.219 29.3096 212.094 29.3096C210.834 29.3096 210.002 28.7093 210.002 27.812M220.802 31.8887V29.06C220.667 29.1432 220.427 29.1967 220.187 29.1967C219.677 29.1967 219.196 28.9768 219.196 28.329V23.2717C219.196 19.819 216.677 17.6737 212.335 17.6737C210.055 17.6737 207.91 18.2739 206.65 19.0346V22.6775C208.045 21.59 209.838 21.1026 211.45 21.1026C213.378 21.1026 214.749 21.8098 214.749 23.3074V23.9076C213.946 23.6877 212.897 23.557 211.883 23.557C208.561 23.557 205.449 24.8644 205.449 28.0675C205.449 30.6229 207.699 32.5008 210.623 32.5008C212.956 32.5008 214.186 31.6569 214.936 30.6229C215.417 31.8709 216.812 32.5008 218.364 32.5008C219.624 32.5008 220.562 32.0908 220.802 31.9006V31.8887ZM193.407 32.1324V22.3744C193.999 21.7742 194.854 21.5068 195.768 21.5068C197.433 21.5068 198.341 22.3506 198.341 24.0621V32.1383H202.9V22.6537C202.9 19.4446 200.785 17.6796 197.778 17.6796C195.61 17.6796 194.081 18.7969 193.196 19.9379V18.0362H185.988V21.0254H188.854V32.1442H193.413L193.407 32.1324Z" fill="black"/>
<path d="M248.309 32.4889C250.319 32.4889 251.901 31.9422 252.786 31.2112V27.5981C251.713 28.3587 250.506 28.7925 249.111 28.7925C246.943 28.7925 245.144 27.4079 245.144 25.0665C245.144 22.725 246.937 21.3701 249.111 21.3701C249.352 21.3701 249.592 21.3701 249.838 21.3998V24.0086H252.786V18.9514C251.93 18.2442 250.319 17.6737 248.309 17.6737C244.101 17.6737 240.562 20.6391 240.562 25.0665C240.562 29.4938 244.101 32.4889 248.309 32.4889ZM228.502 32.1383V22.3803C229.094 21.7801 229.949 21.5127 230.864 21.5127C232.528 21.5127 233.436 22.3566 233.436 24.0681V32.1442H237.995V22.6596C237.995 19.4506 235.88 17.6856 232.874 17.6856C230.705 17.6856 229.176 18.8028 228.291 19.9438V18.0421H221.083V21.0313H223.949V32.1502H228.508L228.502 32.1383Z" fill="black"/>
<path d="M259.325 23.4679C259.407 21.9703 260.503 20.9422 262.033 20.9422C263.562 20.9422 264.552 21.9762 264.605 23.4679H259.325ZM254.69 24.906C254.69 29.7434 258.47 32.4889 263.48 32.4889C266 32.4889 267.822 31.9422 268.947 31.128V27.6753C267.658 28.436 266.082 28.953 263.855 28.953C261.628 28.953 259.325 27.7288 259.325 26.2075H269V24.389C269 20.2826 265.97 17.6737 262.003 17.6737C258.036 17.6737 254.684 20.5559 254.684 24.906H254.69Z" fill="black"/>
<path d="M21.6918 16.4994L16.2678 22L21.6918 27.5006L27.1158 22L21.6918 16.4994Z" fill="#3C4BDC"/>
<path fill-rule="evenodd" clip-rule="evenodd" d="M13.5599 19.2485L8.13944 13.7515L21.6935 0L43.3869 22L37.9665 27.497L21.6993 11C18.9862 13.7515 16.2789 16.497 13.5657 19.2485M0 22L5.42043 16.503L21.6876 33C24.4007 30.2485 27.108 27.503 29.8212 24.7515L35.2416 30.2485L21.6817 44L0 22Z" fill="#00BA64"/>
</g>
<defs>
<clipPath id="clip0_162_176">
<rect width="269" height="44" fill="white"/>
</clipPath>
</defs>
</svg>
