<svg width="233" height="55" viewBox="0 0 233 55" fill="none" xmlns="http://www.w3.org/2000/svg">
<path fill-rule="evenodd" clip-rule="evenodd" d="M40.7834 40.7754V13.5865H13.5945L0 0H13.5945H40.7834H54.3779V13.5865V40.7754V54.3699L40.7834 40.7754Z" fill="#5078FF"/>
<path fill-rule="evenodd" clip-rule="evenodd" d="M13.5945 13.5864L40.7834 40.7754H13.5945V13.5864Z" fill="#5078FF"/>
<path d="M172.868 47.6128V41.9551H171.383V40.4303H175.107V41.4013C175.364 41.0723 175.693 40.7914 176.094 40.5748C176.495 40.3581 176.953 40.2538 177.475 40.2538C178.269 40.2538 178.903 40.4785 179.393 40.9198C179.874 41.3612 180.115 41.9872 180.115 42.7897V47.6208H177.763V43.5119C177.763 43.0786 177.651 42.7496 177.426 42.5329C177.202 42.3162 176.873 42.2039 176.439 42.2039C175.926 42.2039 175.516 42.3483 175.219 42.6452V47.6128H172.868ZM163.374 47.6128V39.058H161.826V37.5493H165.726V41.2569C165.991 40.96 166.32 40.7192 166.697 40.5266C167.074 40.334 167.507 40.2457 167.981 40.2457C168.775 40.2457 169.409 40.4704 169.899 40.9118C170.38 41.3532 170.629 41.9792 170.629 42.7817V47.6128H168.278V43.5039C168.278 43.0706 168.165 42.7415 167.941 42.5249C167.716 42.3082 167.387 42.1958 166.954 42.1958C166.44 42.1958 166.031 42.3403 165.734 42.6372V47.6047H163.382L163.374 47.6128ZM159.282 47.7893C158.551 47.7893 157.885 47.6288 157.275 47.3158C156.666 46.9948 156.184 46.5534 155.823 45.9837C155.462 45.4139 155.285 44.7558 155.285 44.0175C155.285 43.2792 155.462 42.6372 155.823 42.0674C156.184 41.4977 156.666 41.0482 157.275 40.7353C157.885 40.4143 158.551 40.2618 159.282 40.2618C159.779 40.2618 160.229 40.318 160.638 40.4383C161.047 40.5587 161.36 40.7112 161.593 40.9118V43.4879H160.068V42.1557C159.988 42.1477 159.86 42.1397 159.691 42.1397C159.113 42.1397 158.624 42.3082 158.23 42.6533C157.837 42.9903 157.645 43.4477 157.645 44.0256C157.645 44.6034 157.837 45.0688 158.23 45.4059C158.624 45.7429 159.113 45.9195 159.691 45.9195C160.373 45.9195 161.007 45.7188 161.585 45.3096V47.1473C161.344 47.3399 161.023 47.5004 160.622 47.6208C160.221 47.7412 159.771 47.7973 159.274 47.7973L159.282 47.7893ZM151.883 43.199C151.867 42.8218 151.738 42.5088 151.497 42.2761C151.257 42.0353 150.944 41.915 150.558 41.915C150.173 41.915 149.836 42.0353 149.579 42.2761C149.323 42.5168 149.186 42.8218 149.162 43.199H151.891H151.883ZM146.763 43.9293C146.763 43.207 146.931 42.573 147.276 42.0113C147.613 41.4495 148.079 41.0161 148.657 40.7112C149.234 40.3982 149.876 40.2457 150.582 40.2457C151.289 40.2457 151.858 40.3822 152.404 40.655C152.942 40.9279 153.367 41.3211 153.68 41.8347C153.993 42.3483 154.154 42.9582 154.154 43.6644V44.5953H149.162C149.162 44.8441 149.266 45.0768 149.483 45.2935C149.7 45.5102 149.981 45.6787 150.326 45.8071C150.679 45.9355 151.048 45.9917 151.433 45.9917C152.42 45.9917 153.295 45.767 154.049 45.3256V47.0992C153.76 47.2998 153.351 47.4683 152.822 47.5967C152.284 47.7251 151.73 47.7893 151.16 47.7893C150.302 47.7893 149.539 47.6368 148.881 47.3319C148.215 47.0269 147.702 46.5855 147.332 46.0077C146.963 45.4299 146.779 44.7318 146.779 43.9293H146.763ZM144.122 44.9244C144.122 45.2534 144.211 45.5022 144.395 45.6707C144.58 45.8392 144.837 45.9195 145.158 45.9195C145.495 45.9195 145.751 45.8713 145.92 45.783V47.5084C145.792 47.5807 145.591 47.6449 145.326 47.701C145.061 47.7572 144.804 47.7813 144.564 47.7813C143.689 47.7813 142.999 47.5566 142.509 47.1152C142.02 46.6738 141.771 46.0238 141.771 45.1812V42.1798H140.607V40.4223H141.771V38.5845H144.122V40.4223H145.92V42.1798H144.122V44.9163V44.9244ZM134.243 44.0095C134.243 44.5632 134.396 45.0207 134.709 45.3738C135.014 45.7269 135.415 45.9034 135.905 45.9034C136.394 45.9034 136.779 45.7269 137.084 45.3738C137.389 45.0207 137.55 44.5632 137.55 44.0095C137.55 43.4558 137.397 43.0144 137.084 42.6613C136.771 42.3082 136.378 42.1316 135.905 42.1316C135.431 42.1316 135.03 42.3082 134.717 42.6613C134.404 43.0144 134.243 43.4638 134.243 44.0095ZM135.905 40.2457C136.651 40.2457 137.333 40.4062 137.935 40.7192C138.545 41.0322 139.026 41.4736 139.371 42.0514C139.725 42.6212 139.901 43.2792 139.901 44.0175C139.901 44.7558 139.725 45.4219 139.371 45.9997C139.018 46.5695 138.545 47.0109 137.935 47.3319C137.325 47.6449 136.651 47.8054 135.905 47.8054C135.158 47.8054 134.46 47.6449 133.85 47.3319C133.24 47.0189 132.751 46.5775 132.406 45.9997C132.053 45.4299 131.876 44.7719 131.876 44.0175C131.876 43.2632 132.053 42.6212 132.406 42.0514C132.759 41.4816 133.24 41.0402 133.85 40.7192C134.46 40.4062 135.15 40.2457 135.905 40.2457ZM126.162 41.9471H124.71V40.4223H128.401V41.6822C128.57 41.289 128.835 40.968 129.204 40.7192C129.573 40.4785 130.03 40.3501 130.576 40.3501C130.833 40.3501 131.033 40.3822 131.186 40.4464V42.4928C130.913 42.4205 130.608 42.3804 130.287 42.3804C129.509 42.3804 128.923 42.573 128.514 42.9582V47.5967H126.162V41.939V41.9471ZM118.402 43.857C118.402 44.4108 118.538 44.8521 118.819 45.1812C119.1 45.5102 119.469 45.6707 119.943 45.6707C120.505 45.6707 120.994 45.4861 121.411 45.1009V42.6212C120.994 42.244 120.505 42.0514 119.943 42.0514C119.469 42.0514 119.1 42.2119 118.819 42.5329C118.546 42.8539 118.402 43.2953 118.402 43.849V43.857ZM119.774 50.5259C118.546 50.5259 117.535 50.2931 116.733 49.8197V47.9498C117.527 48.4955 118.402 48.7684 119.365 48.7684C119.935 48.7684 120.424 48.64 120.817 48.3751C121.211 48.1103 121.411 47.685 121.411 47.0992V46.4331C121.211 46.722 120.922 46.9627 120.561 47.1634C120.2 47.364 119.774 47.4603 119.293 47.4603C118.683 47.4603 118.129 47.3158 117.64 47.035C117.142 46.746 116.757 46.3368 116.468 45.7911C116.179 45.2454 116.043 44.6034 116.043 43.8651C116.043 43.1267 116.187 42.4847 116.468 41.939C116.757 41.3933 117.142 40.976 117.64 40.6871C118.129 40.3982 118.683 40.2538 119.293 40.2538C119.814 40.2538 120.272 40.3741 120.657 40.6069C121.042 40.8396 121.323 41.1205 121.508 41.4335V40.4383H123.747V47.1473C123.747 47.8696 123.57 48.4795 123.225 48.9931C122.872 49.5067 122.398 49.8919 121.797 50.1487C121.195 50.4055 120.521 50.5339 119.774 50.5339V50.5259ZM111.557 43.8329L110.369 40.4704L109.165 43.8329H111.557ZM108.523 39.3951H106.838V37.8703H111.669L115.449 47.6128H112.889L112.199 45.7188H108.547L107.841 47.6128H105.353L108.539 39.3951H108.523ZM95.6669 44.0336C95.6669 44.6034 95.8033 45.0608 96.0842 45.4059C96.3651 45.7509 96.7343 45.9195 97.2077 45.9195C97.8096 45.9195 98.3072 45.7188 98.7164 45.3096V42.7656C98.3152 42.3483 97.8096 42.1397 97.2077 42.1397C96.7343 42.1397 96.3651 42.3082 96.0842 42.6533C95.8114 42.9903 95.6669 43.4558 95.6669 44.0336ZM96.5416 40.2538C97.0553 40.2538 97.5047 40.3661 97.8738 40.5908C98.243 40.8155 98.5238 41.0884 98.7164 41.4174V37.5573H101.068V47.6128H98.8288V46.425C98.6683 46.7782 98.3954 47.0911 97.9942 47.372C97.601 47.6529 97.1114 47.7973 96.5416 47.7973C95.9317 47.7973 95.386 47.6449 94.8965 47.3399C94.407 47.035 94.0218 46.6016 93.7329 46.0318C93.444 45.462 93.3075 44.796 93.3075 44.0336C93.3075 43.2712 93.452 42.5971 93.7329 42.0273C94.0218 41.4575 94.407 41.0161 94.8965 40.7112C95.386 40.4062 95.9317 40.2538 96.5416 40.2538ZM84.6726 47.6128V41.9551H83.1959V40.4303H86.9196V41.4013C87.1764 41.0723 87.5054 40.7914 87.9067 40.5748C88.3079 40.3581 88.7654 40.2538 89.279 40.2538C90.0734 40.2538 90.7074 40.4785 91.1969 40.9198C91.6784 41.3612 91.9272 41.9872 91.9272 42.7897V47.6208H89.5759V43.5119C89.5759 43.0786 89.4635 42.7496 89.2388 42.5329C89.0141 42.3162 88.6851 42.2039 88.2518 42.2039C87.7382 42.2039 87.3289 42.3483 87.0319 42.6452V47.6128H84.6806H84.6726ZM77.4741 45.4139C77.4741 45.6466 77.5704 45.8312 77.771 45.9676C77.9716 46.104 78.2284 46.1763 78.5494 46.1763C79.0871 46.1763 79.5445 45.9756 79.9217 45.5664V44.7639C79.5686 44.6595 79.1914 44.6114 78.7902 44.6114C78.4291 44.6114 78.1241 44.6756 77.8673 44.796C77.6105 44.9244 77.4821 45.125 77.4821 45.4139H77.4741ZM83.0515 47.4924C82.9712 47.5566 82.8108 47.6208 82.578 47.693C82.3453 47.7652 82.0805 47.7973 81.7996 47.7973C81.3823 47.7973 81.0131 47.7171 80.6921 47.5486C80.3711 47.38 80.1464 47.1473 80.0261 46.8423C79.5526 47.4763 78.8143 47.7973 77.7951 47.7973C77.2975 47.7973 76.8481 47.701 76.4388 47.5084C76.0296 47.3158 75.7086 47.043 75.4758 46.6979C75.2431 46.3528 75.1227 45.9676 75.1227 45.5423C75.1227 44.7799 75.4437 44.2021 76.0777 43.8169C76.7117 43.4317 77.5062 43.2391 78.4451 43.2391C78.9828 43.2391 79.4723 43.2953 79.9217 43.4156V43.1107C79.9217 42.7415 79.7692 42.4607 79.4563 42.2761C79.1513 42.0835 78.734 41.9952 78.2204 41.9952C77.7871 41.9952 77.3537 42.0594 76.9204 42.1958C76.487 42.3323 76.0938 42.5329 75.7407 42.7977V40.9439C76.0777 40.7433 76.5191 40.5748 77.0407 40.4464C77.5704 40.318 78.1081 40.2538 78.6698 40.2538C79.7853 40.2538 80.652 40.5106 81.278 41.0161C81.9039 41.5217 82.2089 42.2199 82.2089 43.1027V45.6787C82.2089 45.8392 82.257 45.9516 82.3533 46.0158C82.4496 46.088 82.57 46.1201 82.7225 46.1201C82.8589 46.1201 82.9632 46.096 83.0435 46.0479V47.4844L83.0515 47.4924ZM198.589 28.2322C198.95 28.4409 199.399 28.6335 199.953 28.794C200.498 28.9545 201.012 29.0347 201.478 29.0347C201.887 29.0347 202.2 28.9866 202.432 28.9063C202.665 28.818 202.778 28.6816 202.778 28.497C202.778 28.3606 202.705 28.2563 202.569 28.176C202.433 28.1038 202.184 28.0316 201.823 27.9674L201.132 27.839C199.335 27.518 198.436 26.7556 198.436 25.5518C198.436 25.1024 198.58 24.7012 198.869 24.3481C199.158 23.995 199.568 23.7221 200.081 23.5215C200.595 23.3209 201.181 23.2246 201.839 23.2246C202.449 23.2246 203.002 23.2888 203.492 23.4172C203.981 23.5456 204.383 23.7141 204.672 23.9308V25.7284C204.254 25.4876 203.813 25.3031 203.339 25.1666C202.866 25.0302 202.392 24.966 201.935 24.966C201.566 24.966 201.285 25.0061 201.084 25.0944C200.884 25.1747 200.787 25.3031 200.787 25.4716C200.787 25.608 200.868 25.7123 201.012 25.7926C201.165 25.8648 201.429 25.937 201.807 26.0173L202.513 26.1537C203.307 26.3142 203.941 26.563 204.415 26.9C204.888 27.2451 205.129 27.7427 205.129 28.4088C205.129 28.8983 204.984 29.3156 204.696 29.6767C204.407 30.0298 204.005 30.3027 203.5 30.4953C202.994 30.6879 202.424 30.7761 201.799 30.7761C201.132 30.7761 200.507 30.7039 199.913 30.5675C199.319 30.4311 198.877 30.2545 198.58 30.0539V28.2242L198.589 28.2322ZM194.993 30.7761C194.263 30.7761 193.597 30.6157 192.987 30.3027C192.377 29.9817 191.896 29.5403 191.534 28.9705C191.173 28.4007 190.997 27.7427 190.997 27.0044C190.997 26.2661 191.173 25.6241 191.534 25.0543C191.896 24.4845 192.377 24.0351 192.987 23.7221C193.597 23.4011 194.263 23.2486 194.993 23.2486C195.491 23.2486 195.94 23.3048 196.35 23.4252C196.759 23.5456 197.072 23.698 197.305 23.8987V26.4747H195.78V25.1426C195.699 25.1345 195.571 25.1265 195.403 25.1265C194.825 25.1265 194.335 25.295 193.942 25.6401C193.549 25.9772 193.356 26.4346 193.356 27.0124C193.356 27.5902 193.549 28.0557 193.942 28.3927C194.335 28.7378 194.825 28.9063 195.403 28.9063C196.085 28.9063 196.719 28.7057 197.296 28.2964V30.1341C197.056 30.3267 196.735 30.4872 196.333 30.6076C195.932 30.728 195.483 30.7842 194.985 30.7842L194.993 30.7761ZM188.348 20.0948C188.726 20.0948 189.047 20.2071 189.295 20.4399C189.552 20.6726 189.673 20.9535 189.673 21.2985C189.673 21.6436 189.544 21.9245 189.295 22.1572C189.039 22.3899 188.726 22.5023 188.348 22.5023C187.971 22.5023 187.666 22.3899 187.418 22.1572C187.161 21.9245 187.04 21.6436 187.04 21.2985C187.04 20.9535 187.169 20.6726 187.418 20.4399C187.674 20.2071 187.979 20.0948 188.348 20.0948ZM189.592 30.5996H187.241V24.9419H185.756V23.4172H189.592V30.5996ZM173.31 30.5996V24.9419H171.825V23.4172H175.548V24.3882C175.797 24.0592 176.118 23.7783 176.503 23.5616C176.889 23.3449 177.33 23.2326 177.836 23.2326C178.341 23.2326 178.775 23.3369 179.144 23.5456C179.505 23.7542 179.786 24.0271 179.978 24.3721C180.211 24.0592 180.516 23.7943 180.909 23.5696C181.303 23.3449 181.776 23.2406 182.346 23.2406C183.14 23.2406 183.782 23.4653 184.272 23.9067C184.761 24.3481 185.002 24.966 185.002 25.7444V30.5996H182.651V26.3543C182.651 25.9852 182.546 25.6963 182.338 25.4957C182.129 25.295 181.848 25.1907 181.487 25.1907C180.998 25.1907 180.612 25.3351 180.323 25.616V30.5996H177.972V26.3543C177.972 25.9852 177.868 25.6963 177.667 25.4957C177.466 25.295 177.186 25.1907 176.825 25.1907C176.343 25.1907 175.958 25.3271 175.661 25.608V30.5996H173.31ZM165.742 27.0044C165.742 27.5581 165.894 28.0155 166.207 28.3686C166.52 28.7217 166.914 28.8983 167.403 28.8983C167.893 28.8983 168.278 28.7217 168.583 28.3686C168.896 28.0155 169.048 27.5581 169.048 27.0044C169.048 26.4506 168.896 26.0093 168.583 25.6562C168.278 25.3031 167.877 25.1265 167.403 25.1265C166.93 25.1265 166.528 25.3031 166.215 25.6562C165.902 26.0093 165.742 26.4587 165.742 27.0044ZM167.403 23.2406C168.149 23.2406 168.832 23.4011 169.441 23.7141C170.051 24.0271 170.533 24.4684 170.878 25.0462C171.231 25.616 171.408 26.2741 171.408 27.0124C171.408 27.7507 171.231 28.4168 170.878 28.9946C170.525 29.5644 170.043 30.0057 169.441 30.3267C168.832 30.6397 168.157 30.8002 167.403 30.8002C166.649 30.8002 165.959 30.6397 165.349 30.3267C164.739 30.0138 164.257 29.5724 163.904 28.9946C163.551 28.4248 163.374 27.7668 163.374 27.0124C163.374 26.258 163.551 25.616 163.904 25.0462C164.257 24.4765 164.739 24.0351 165.349 23.7141C165.959 23.4011 166.649 23.2406 167.403 23.2406ZM154.796 30.5996V24.9419H153.311V23.4172H157.035V24.3882C157.291 24.0592 157.621 23.7783 158.022 23.5616C158.423 23.3449 158.88 23.2326 159.402 23.2326C160.197 23.2326 160.831 23.4573 161.32 23.8987C161.802 24.34 162.05 24.966 162.05 25.7685V30.5996H159.699V26.4908C159.699 26.0574 159.587 25.7284 159.362 25.5117C159.137 25.295 158.808 25.1827 158.375 25.1827C157.861 25.1827 157.452 25.3271 157.155 25.6241V30.5916H154.804L154.796 30.5996ZM147.228 27.0044C147.228 27.5581 147.381 28.0155 147.693 28.3686C148.006 28.7217 148.4 28.8983 148.889 28.8983C149.379 28.8983 149.764 28.7217 150.069 28.3686C150.374 28.0155 150.534 27.5581 150.534 27.0044C150.534 26.4506 150.382 26.0093 150.069 25.6562C149.756 25.3031 149.363 25.1265 148.889 25.1265C148.416 25.1265 148.015 25.3031 147.702 25.6562C147.389 26.0093 147.228 26.4587 147.228 27.0044ZM148.889 23.2406C149.636 23.2406 150.318 23.4011 150.92 23.7141C151.529 24.0271 152.011 24.4684 152.356 25.0462C152.709 25.616 152.886 26.2741 152.886 27.0124C152.886 27.7507 152.709 28.4168 152.356 28.9946C152.003 29.5644 151.529 30.0057 150.92 30.3267C150.31 30.6397 149.636 30.8002 148.889 30.8002C148.143 30.8002 147.445 30.6397 146.835 30.3267C146.217 30.0138 145.735 29.5724 145.39 28.9946C145.037 28.4248 144.869 27.7668 144.869 27.0124C144.869 26.258 145.045 25.616 145.39 25.0462C145.743 24.4765 146.225 24.0351 146.835 23.7141C147.445 23.4011 148.135 23.2406 148.889 23.2406ZM141.57 30.7842C140.84 30.7842 140.174 30.6237 139.564 30.3107C138.954 29.9897 138.473 29.5483 138.112 28.9785C137.75 28.4088 137.574 27.7507 137.574 27.0124C137.574 26.2741 137.75 25.6321 138.112 25.0623C138.473 24.4925 138.954 24.0431 139.564 23.7301C140.174 23.4091 140.84 23.2567 141.57 23.2567C142.068 23.2567 142.517 23.3128 142.927 23.4332C143.336 23.5536 143.649 23.7061 143.882 23.9067V26.4827H142.357V25.1506C142.277 25.1426 142.148 25.1345 141.98 25.1345C141.402 25.1345 140.912 25.3031 140.519 25.6481C140.126 25.9852 139.933 26.4426 139.933 27.0204C139.933 27.5982 140.126 28.0637 140.519 28.4007C140.912 28.7458 141.402 28.9143 141.98 28.9143C142.662 28.9143 143.296 28.7137 143.874 28.3044V30.1422C143.633 30.3348 143.312 30.4953 142.911 30.6157C142.509 30.736 142.06 30.7922 141.562 30.7922L141.57 30.7842ZM127.43 20.8652H136.434V22.8875H131.539V24.6851H136.161V26.6352H131.539V28.5853H136.434V30.6076H129.075V22.3899H127.43V20.8652ZM123.193 30.6076H120.842V22.0689H119.365V20.5442H123.201V30.5996L123.193 30.6076ZM114.076 28.4088C114.076 28.6415 114.173 28.8261 114.373 28.9625C114.574 29.0989 114.831 29.1711 115.152 29.1711C115.689 29.1711 116.147 28.9705 116.524 28.5612V27.7587C116.171 27.6544 115.794 27.6062 115.393 27.6062C115.031 27.6062 114.726 27.6705 114.47 27.7908C114.213 27.9192 114.084 28.1199 114.084 28.4088H114.076ZM119.654 30.4873C119.574 30.5515 119.413 30.6157 119.18 30.6879C118.948 30.7601 118.683 30.7922 118.402 30.7922C117.985 30.7922 117.616 30.712 117.295 30.5434C116.973 30.3749 116.749 30.1422 116.628 29.8372C116.155 30.4712 115.417 30.7922 114.397 30.7922C113.9 30.7922 113.45 30.6959 113.041 30.5033C112.632 30.3107 112.311 30.0378 112.078 29.6928C111.845 29.3477 111.725 28.9625 111.725 28.5372C111.725 27.7748 112.046 27.197 112.68 26.8118C113.314 26.4266 114.109 26.234 115.047 26.234C115.585 26.234 116.075 26.2901 116.524 26.4105V26.1056C116.524 25.7364 116.372 25.4555 116.059 25.271C115.754 25.0784 115.336 24.9901 114.823 24.9901C114.389 24.9901 113.956 25.0543 113.523 25.1907C113.089 25.3271 112.696 25.5278 112.343 25.7926V23.9388C112.688 23.7382 113.121 23.5696 113.643 23.4412C114.173 23.3128 114.71 23.2486 115.272 23.2486C116.388 23.2486 117.254 23.5054 117.88 24.011C118.506 24.5166 118.811 25.2148 118.811 26.0975V28.6736C118.811 28.8341 118.859 28.9464 118.956 29.0106C119.052 29.0829 119.172 29.115 119.325 29.115C119.461 29.115 119.566 29.0909 119.646 29.0427V30.4792L119.654 30.4873ZM108.932 27.9273C108.932 28.2563 109.029 28.5051 109.205 28.6736C109.39 28.8421 109.647 28.9224 109.968 28.9224C110.305 28.9224 110.561 28.8742 110.73 28.7859V30.5113C110.602 30.5836 110.401 30.6478 110.136 30.7039C109.871 30.7601 109.615 30.7842 109.374 30.7842C108.499 30.7842 107.809 30.5595 107.319 30.1181C106.83 29.6767 106.581 29.0267 106.581 28.1841V25.1827H105.417V23.4252H106.581V21.5874H108.932V23.4252H110.73V25.1827H108.932V27.9192V27.9273ZM102.93 20.1108C103.307 20.1108 103.628 20.2232 103.877 20.4559C104.133 20.6886 104.254 20.9695 104.254 21.3146C104.254 21.6597 104.125 21.9405 103.877 22.1733C103.62 22.406 103.307 22.5184 102.93 22.5184C102.552 22.5184 102.247 22.406 101.999 22.1733C101.742 21.9405 101.622 21.6597 101.622 21.3146C101.622 20.9695 101.75 20.6886 101.999 20.4559C102.256 20.2232 102.56 20.1108 102.93 20.1108ZM104.174 30.6157H101.822V24.958H100.338V23.4332H104.174V30.6157ZM94.0298 26.8679C94.0298 27.4217 94.1662 27.8631 94.4471 28.1921C94.728 28.5211 95.0971 28.6816 95.5706 28.6816C96.1324 28.6816 96.6219 28.489 97.0392 28.1118V25.6321C96.6219 25.2549 96.1324 25.0623 95.5706 25.0623C95.0971 25.0623 94.728 25.2228 94.4471 25.5438C94.1662 25.8648 94.0298 26.3062 94.0298 26.8599V26.8679ZM95.4021 33.5368C94.1743 33.5368 93.1631 33.3041 92.3606 32.8306V30.9607C93.1551 31.5064 94.0298 31.7793 94.9928 31.7793C95.5626 31.7793 96.0521 31.6509 96.4454 31.3861C96.8386 31.1212 97.0392 30.6959 97.0392 30.1101V29.444C96.8386 29.7329 96.5497 29.9736 96.1885 30.1662C95.8274 30.3669 95.4021 30.4632 94.9206 30.4632C94.3107 30.4632 93.757 30.3187 93.2674 30.0378C92.7699 29.7489 92.3847 29.3397 92.0957 28.794C91.8068 28.2483 91.6704 27.6062 91.6704 26.8679C91.6704 26.1296 91.8149 25.4876 92.0957 24.9419C92.3847 24.3962 92.7699 23.9789 93.2674 23.69C93.757 23.4011 94.3107 23.2567 94.9206 23.2567C95.4502 23.2567 95.8996 23.377 96.2848 23.6098C96.67 23.8425 96.9509 24.1153 97.1355 24.4363V23.4412H99.3745V30.1502C99.3745 30.8725 99.1979 31.4824 98.8448 31.996C98.4917 32.5096 98.0183 32.8948 97.4164 33.1516C96.8145 33.4084 96.1404 33.5368 95.3941 33.5368H95.4021ZM88.966 20.1189C89.3432 20.1189 89.6561 20.2312 89.913 20.4639C90.1698 20.6967 90.2901 20.9775 90.2901 21.3226C90.2901 21.6677 90.1617 21.9486 89.913 22.1813C89.6561 22.414 89.3432 22.5264 88.966 22.5264C88.5888 22.5264 88.2838 22.414 88.0351 22.1813C87.7783 21.9486 87.6579 21.6677 87.6579 21.3226C87.6579 20.9775 87.7863 20.6967 88.0351 20.4639C88.2919 20.2312 88.5968 20.1189 88.966 20.1189ZM90.2099 30.6237H87.8585V24.966H86.3739V23.4412H90.2099V30.6237ZM79.8334 28.6415C80.8045 28.6415 81.5749 28.3847 82.1607 27.8631C82.7385 27.3494 83.0355 26.6432 83.0355 25.7444C83.0355 24.8456 82.7466 24.1474 82.1607 23.6258C81.5829 23.1122 80.8045 22.8474 79.8334 22.8474H78.8945V28.6335H79.8334V28.6415ZM80.0261 20.8812C81.1335 20.8812 82.1045 21.0738 82.9311 21.4671C83.7577 21.8603 84.3997 22.422 84.8571 23.1523C85.3065 23.8826 85.5393 24.7493 85.5393 25.7444C85.5393 26.7395 85.3146 27.6063 84.8571 28.3365C84.4077 29.0668 83.7657 29.6366 82.9311 30.0218C82.1045 30.415 81.1335 30.6076 80.0261 30.6076H76.4308V22.3899H74.7857V20.8652H80.0261V20.8812ZM164.578 13.6025V8.17754H163.415V6.42005H164.578V5.85027C164.578 5.37679 164.699 4.95147 164.939 4.57429C165.18 4.19711 165.517 3.90018 165.967 3.6835C166.408 3.46683 166.93 3.35447 167.515 3.35447C167.772 3.35447 168.013 3.37855 168.23 3.41868C168.446 3.4588 168.615 3.51497 168.735 3.57917V5.24036C168.663 5.20024 168.559 5.17616 168.414 5.15209C168.278 5.12801 168.133 5.11999 167.989 5.11999C167.684 5.11999 167.435 5.19222 167.235 5.33667C167.034 5.48112 166.938 5.68175 166.938 5.93855V6.42005H168.735V8.17754H166.938V13.6025H164.586H164.578ZM157.035 10.0073C157.035 10.561 157.187 11.0184 157.5 11.3715C157.805 11.7246 158.206 11.9012 158.696 11.9012C159.185 11.9012 159.571 11.7246 159.876 11.3715C160.18 11.0184 160.341 10.561 160.341 10.0073C160.341 9.45353 160.189 9.01215 159.876 8.65905C159.563 8.30594 159.169 8.1294 158.696 8.1294C158.222 8.1294 157.821 8.30594 157.508 8.65905C157.195 9.01215 157.035 9.46156 157.035 10.0073ZM158.696 6.2435C159.442 6.2435 160.124 6.404 160.726 6.71698C161.336 7.02996 161.818 7.47134 162.163 8.04914C162.516 8.61892 162.684 9.27698 162.684 10.0153C162.684 10.7536 162.508 11.4197 162.163 11.9975C161.81 12.5673 161.336 13.0086 160.726 13.3296C160.116 13.6426 159.442 13.8031 158.696 13.8031C157.95 13.8031 157.251 13.6426 156.641 13.3296C156.032 13.0167 155.55 12.5753 155.197 11.9975C154.844 11.4277 154.667 10.7696 154.667 10.0153C154.667 9.26093 154.844 8.61892 155.197 8.04914C155.55 7.47936 156.032 7.03798 156.641 6.71698C157.251 6.404 157.941 6.2435 158.696 6.2435ZM150.807 6.42005L148.36 12.9123C147.91 14.1001 147.356 14.9989 146.706 15.6088C146.056 16.2187 145.262 16.5236 144.331 16.5236C144.082 16.5236 143.849 16.4995 143.633 16.4514C143.416 16.4032 143.256 16.3471 143.143 16.2909V14.4772C143.328 14.5896 143.585 14.6458 143.922 14.6458C144.652 14.6458 145.19 14.2926 145.527 13.5784L142.846 6.42808H145.35L146.819 11.0666L148.424 6.42808H150.815L150.807 6.42005ZM140.359 10.9141C140.359 11.2431 140.455 11.4919 140.639 11.6604C140.824 11.829 141.081 11.9092 141.402 11.9092C141.739 11.9092 141.996 11.8611 142.164 11.7728V13.4982C142.036 13.5704 141.835 13.6346 141.57 13.6908C141.306 13.7469 141.049 13.771 140.808 13.771C139.933 13.771 139.243 13.5463 138.754 13.1049C138.264 12.6636 138.015 12.0135 138.015 11.1709V8.16952H136.852V6.41203H138.015V4.57429H140.367V6.41203H142.164V8.16952H140.367V10.9061L140.359 10.9141ZM134.356 3.09767C134.733 3.09767 135.054 3.21002 135.303 3.44275C135.56 3.67548 135.68 3.95635 135.68 4.30143C135.68 4.64651 135.552 4.92739 135.303 5.16012C135.046 5.39284 134.733 5.50519 134.356 5.50519C133.979 5.50519 133.674 5.39284 133.425 5.16012C133.168 4.92739 133.048 4.64651 133.048 4.30143C133.048 3.95635 133.176 3.67548 133.425 3.44275C133.682 3.21002 133.987 3.09767 134.356 3.09767ZM135.6 13.6025H133.248V7.94482H131.772V6.42005H135.608V13.6025H135.6ZM124.806 11.2351C125.167 11.4437 125.617 11.6364 126.17 11.7969C126.716 11.9574 127.23 12.0376 127.695 12.0376C128.104 12.0376 128.417 11.9895 128.65 11.9092C128.883 11.8209 128.995 11.6845 128.995 11.4999C128.995 11.3635 128.923 11.2592 128.786 11.1789C128.65 11.1067 128.401 11.0345 128.04 10.9703L127.35 10.8499C125.552 10.5289 124.653 9.76651 124.653 8.56275C124.653 8.11334 124.798 7.71209 125.087 7.35898C125.376 7.00588 125.785 6.73303 126.299 6.5324C126.812 6.33178 127.398 6.23548 128.056 6.23548C128.666 6.23548 129.212 6.29968 129.709 6.42808C130.199 6.55648 130.6 6.72501 130.889 6.94168V8.7393C130.472 8.49855 130.03 8.31397 129.557 8.17754C129.083 8.04112 128.61 7.97692 128.152 7.97692C127.783 7.97692 127.502 8.01704 127.302 8.10532C127.101 8.18557 127.005 8.31397 127.005 8.4825C127.005 8.61892 127.085 8.72325 127.23 8.8035C127.382 8.87573 127.647 8.94795 128.024 9.0282L128.73 9.16463C129.525 9.32513 130.159 9.5739 130.632 9.91096C131.106 10.256 131.346 10.7536 131.346 11.4197C131.346 11.9092 131.202 12.3265 130.913 12.6876C130.624 13.0407 130.223 13.3136 129.717 13.5062C129.212 13.6988 128.642 13.7871 128.016 13.7871C127.35 13.7871 126.724 13.7148 126.13 13.5784C125.536 13.442 125.095 13.2654 124.806 13.0648V11.2351ZM118.707 7.94482H117.254V6.42005H120.946V7.67999C121.114 7.28676 121.379 6.96576 121.748 6.71698C122.118 6.47623 122.575 6.34783 123.121 6.34783C123.377 6.34783 123.578 6.37993 123.731 6.44413V8.49052C123.458 8.4183 123.153 8.37817 122.832 8.37817C122.053 8.37817 121.468 8.57077 121.058 8.95598V13.5945H118.707V7.93679V7.94482ZM114.422 9.18871C114.405 8.81153 114.277 8.49855 114.036 8.25779C113.796 8.01704 113.483 7.89667 113.097 7.89667C112.712 7.89667 112.375 8.01704 112.118 8.25779C111.862 8.49855 111.725 8.8035 111.701 9.18871H114.43H114.422ZM109.302 9.91898C109.302 9.19673 109.47 8.56275 109.815 8.00099C110.152 7.43924 110.618 7.00588 111.195 6.70093C111.773 6.38795 112.415 6.23548 113.121 6.23548C113.828 6.23548 114.405 6.3719 114.943 6.64475C115.481 6.91761 115.906 7.31083 116.219 7.82444C116.532 8.33804 116.693 8.94795 116.693 9.65416V10.5851H111.701C111.701 10.8338 111.805 11.0666 112.022 11.2833C112.231 11.4999 112.512 11.6685 112.865 11.7969C113.218 11.9253 113.587 11.9814 113.972 11.9814C114.959 11.9814 115.834 11.7567 116.588 11.3153V13.0889C116.299 13.2895 115.89 13.458 115.352 13.5864C114.815 13.7148 114.261 13.779 113.691 13.779C112.833 13.779 112.07 13.6266 111.404 13.3216C110.738 13.0167 110.224 12.5753 109.855 11.9895C109.486 11.4116 109.302 10.7135 109.302 9.91096V9.91898ZM106.116 13.6025H103.708L100.931 6.42005H103.435L104.968 10.874L106.501 6.42005H108.892L106.108 13.6025H106.116ZM98.6201 3.09767C98.9973 3.09767 99.3103 3.21002 99.5671 3.44275C99.8239 3.67548 99.9443 3.95635 99.9443 4.30143C99.9443 4.64651 99.8159 4.92739 99.5671 5.16012C99.3103 5.39284 98.9973 5.50519 98.6201 5.50519C98.243 5.50519 97.938 5.39284 97.6892 5.16012C97.4324 4.92739 97.312 4.64651 97.312 4.30143C97.312 3.95635 97.4405 3.67548 97.6892 3.44275C97.946 3.21002 98.251 3.09767 98.6201 3.09767ZM99.864 13.6025H97.5127V7.94482H96.0281V6.42005H99.864V13.6025ZM88.019 13.6025V7.94482H86.5424V6.42005H90.266V7.39108C90.5228 7.06206 90.8519 6.78118 91.2531 6.5645C91.6544 6.34783 92.1118 6.23548 92.6334 6.23548C93.4279 6.23548 94.0619 6.46018 94.5514 6.90155C95.0329 7.34293 95.2817 7.96889 95.2817 8.7714V13.6025H92.9304V9.49366C92.9304 9.0603 92.818 8.73127 92.5933 8.5146C92.3686 8.29792 92.0396 8.18557 91.6062 8.18557C91.0926 8.18557 90.6834 8.33002 90.3864 8.62695V13.5945H88.0351L88.019 13.6025ZM76.4228 5.44099H74.7776V3.86006H78.8865V9.54983C78.8865 10.232 79.0791 10.7696 79.4643 11.1629C79.8495 11.5561 80.3631 11.7487 80.989 11.7487C81.615 11.7487 82.1286 11.5561 82.5218 11.1629C82.9151 10.7696 83.1157 10.232 83.1157 9.54983V3.86006H85.5794V9.61403C85.5794 10.5289 85.3788 11.2993 84.9695 11.9253C84.5602 12.5512 84.0145 13.0167 83.3243 13.3216C82.6342 13.6266 81.8558 13.779 80.989 13.779C80.1223 13.779 79.3439 13.6266 78.6618 13.3216C77.9716 13.0167 77.4339 12.5512 77.0327 11.9253C76.6314 11.2993 76.4308 10.5289 76.4308 9.61403V5.43297L76.4228 5.44099Z" fill="black"/>
<path d="M226.452 45.2454C226.813 45.454 227.262 45.6466 227.816 45.8071C228.361 45.9676 228.875 46.0479 229.349 46.0479C229.758 46.0479 230.071 45.9997 230.304 45.9195C230.536 45.8312 230.649 45.6948 230.649 45.5102C230.649 45.3738 230.576 45.2694 230.44 45.1892C230.304 45.117 230.055 45.0447 229.694 44.9805L229.003 44.8521C227.206 44.5311 226.307 43.7688 226.307 42.565C226.307 42.1156 226.451 41.7143 226.74 41.3612C227.029 41.0081 227.431 40.7353 227.952 40.5346C228.466 40.334 229.052 40.2377 229.71 40.2377C230.32 40.2377 230.873 40.3019 231.363 40.4303C231.852 40.5587 232.254 40.7272 232.543 40.9439V42.7415C232.125 42.5008 231.684 42.3162 231.21 42.1798C230.737 42.0434 230.263 41.9792 229.806 41.9792C229.437 41.9792 229.156 42.0193 228.955 42.1076C228.755 42.1878 228.658 42.3162 228.658 42.4847C228.658 42.6212 228.731 42.7255 228.883 42.8057C229.036 42.878 229.3 42.9502 229.678 43.0304L230.384 43.1669C231.178 43.3274 231.812 43.5761 232.286 43.9132C232.759 44.2583 233 44.7558 233 45.4219C233 45.9114 232.856 46.3288 232.567 46.6899C232.278 47.043 231.876 47.3158 231.371 47.5084C230.865 47.701 230.295 47.7893 229.67 47.7893C229.003 47.7893 228.378 47.7171 227.784 47.5807C227.19 47.4442 226.748 47.2757 226.459 47.0671V45.2373L226.452 45.2454ZM222.816 43.199C222.8 42.8218 222.672 42.5088 222.431 42.2761C222.19 42.0353 221.877 41.915 221.492 41.915C221.107 41.915 220.77 42.0353 220.513 42.2761C220.256 42.5168 220.12 42.8218 220.096 43.199H222.824H222.816ZM217.696 43.9293C217.696 43.207 217.865 42.573 218.21 42.0113C218.547 41.4495 219.012 41.0161 219.59 40.7112C220.168 40.3982 220.81 40.2457 221.516 40.2457C222.222 40.2457 222.792 40.3822 223.338 40.655C223.875 40.9279 224.301 41.3211 224.614 41.8347C224.927 42.3483 225.087 42.9582 225.087 43.6644V44.5953H220.096C220.096 44.8441 220.2 45.0768 220.417 45.2935C220.633 45.5102 220.914 45.6787 221.259 45.8071C221.612 45.9355 221.982 45.9917 222.367 45.9917C223.354 45.9917 224.229 45.767 224.983 45.3256V47.0992C224.694 47.2998 224.285 47.4683 223.755 47.5967C223.217 47.7251 222.664 47.7893 222.094 47.7893C221.235 47.7893 220.473 47.6368 219.815 47.3319C219.149 47.0269 218.635 46.5856 218.266 46.0077C217.897 45.4299 217.712 44.7318 217.712 43.9293H217.696ZM215.056 37.1079C215.433 37.1079 215.754 37.2203 216.003 37.453C216.26 37.6857 216.38 37.9666 216.38 38.3117C216.38 38.6568 216.252 38.9377 216.003 39.1704C215.746 39.4031 215.433 39.5155 215.056 39.5155C214.679 39.5155 214.374 39.4031 214.125 39.1704C213.868 38.9377 213.748 38.6568 213.748 38.3117C213.748 37.9666 213.876 37.6857 214.125 37.453C214.382 37.2203 214.687 37.1079 215.056 37.1079ZM216.3 47.6128H213.948V41.9551H212.464V40.4303H216.3V47.6128ZM206.156 43.8651C206.156 44.4188 206.293 44.8602 206.573 45.1892C206.846 45.5182 207.223 45.6787 207.697 45.6787C208.259 45.6787 208.748 45.4941 209.165 45.1089V42.6292C208.748 42.252 208.259 42.0594 207.697 42.0594C207.223 42.0594 206.854 42.2199 206.573 42.5409C206.301 42.8619 206.156 43.3033 206.156 43.857V43.8651ZM207.528 50.5339C206.301 50.5339 205.289 50.3012 204.487 49.8277V47.9578C205.281 48.5035 206.156 48.7764 207.119 48.7764C207.689 48.7764 208.178 48.648 208.572 48.3832C208.965 48.1183 209.165 47.693 209.165 47.1072V46.4411C208.965 46.73 208.676 46.9708 208.315 47.1714C207.954 47.372 207.528 47.4683 207.047 47.4683C206.437 47.4683 205.883 47.3239 205.394 47.043C204.896 46.7541 204.511 46.3448 204.222 45.7991C203.933 45.2534 203.797 44.6114 203.797 43.8731C203.797 43.1348 203.941 42.4928 204.222 41.9471C204.511 41.4014 204.896 40.9841 205.394 40.6951C205.891 40.4062 206.437 40.2618 207.047 40.2618C207.576 40.2618 208.026 40.3822 208.411 40.6149C208.796 40.8476 209.077 41.1285 209.262 41.4415V40.4464H211.501V47.1553C211.501 47.8776 211.324 48.4875 210.979 49.0011C210.626 49.5147 210.153 49.8999 209.551 50.1567C208.949 50.4135 208.275 50.5419 207.528 50.5419V50.5339ZM197.08 44.0175C197.08 44.5713 197.232 45.0287 197.545 45.3818C197.85 45.7349 198.251 45.9114 198.741 45.9114C199.23 45.9114 199.616 45.7349 199.921 45.3818C200.234 45.0287 200.386 44.5713 200.386 44.0175C200.386 43.4638 200.234 43.0224 199.921 42.6693C199.608 42.3162 199.214 42.1397 198.741 42.1397C198.267 42.1397 197.866 42.3162 197.553 42.6693C197.24 43.0224 197.08 43.4718 197.08 44.0175ZM198.741 40.2538C199.487 40.2538 200.169 40.4143 200.771 40.7272C201.381 41.0402 201.863 41.4816 202.208 42.0594C202.561 42.6292 202.729 43.2872 202.729 44.0256C202.729 44.7639 202.553 45.4299 202.208 46.0077C201.855 46.5775 201.381 47.0189 200.771 47.3399C200.161 47.6529 199.487 47.8134 198.741 47.8134C197.995 47.8134 197.296 47.6529 196.686 47.3399C196.077 47.0269 195.587 46.5856 195.242 46.0077C194.889 45.438 194.712 44.7799 194.712 44.0256C194.712 43.2712 194.889 42.6292 195.242 42.0594C195.595 41.4896 196.077 41.0482 196.686 40.7272C197.296 40.4143 197.987 40.2538 198.741 40.2538ZM193.316 47.6128H190.965V39.0741H189.488V37.5493H193.324V47.6047L193.316 47.6128ZM183.806 44.0175C183.806 44.5713 183.959 45.0287 184.272 45.3818C184.585 45.7349 184.978 45.9114 185.467 45.9114C185.957 45.9114 186.342 45.7349 186.647 45.3818C186.952 45.0287 187.113 44.5713 187.113 44.0175C187.113 43.4638 186.96 43.0224 186.647 42.6693C186.334 42.3162 185.941 42.1397 185.467 42.1397C184.994 42.1397 184.593 42.3162 184.28 42.6693C183.967 43.0224 183.806 43.4718 183.806 44.0175ZM185.467 40.2538C186.214 40.2538 186.896 40.4143 187.498 40.7272C188.108 41.0402 188.589 41.4816 188.934 42.0594C189.287 42.6292 189.456 43.2872 189.456 44.0256C189.456 44.7639 189.279 45.4299 188.934 46.0077C188.581 46.5775 188.1 47.0189 187.498 47.3399C186.888 47.6529 186.214 47.8134 185.467 47.8134C184.721 47.8134 184.023 47.6529 183.413 47.3399C182.803 47.0269 182.322 46.5856 181.968 46.0077C181.615 45.438 181.439 44.7799 181.439 44.0256C181.439 43.2712 181.615 42.6292 181.968 42.0594C182.322 41.4896 182.803 41.0482 183.413 40.7272C184.023 40.4143 184.713 40.2538 185.467 40.2538Z" fill="black"/>
</svg>
